<?xml version="1.0" encoding="utf-8"?>
<!-- Generator: Adobe Illustrator 26.0.0, SVG Export Plug-In . SVG Version: 6.00 Build 0)  -->
<svg version="1.1" id="Layer_1" xmlns="http://www.w3.org/2000/svg" xmlns:xlink="http://www.w3.org/1999/xlink" x="0px" y="0px"
	 viewBox="0 0 2560 1600" style="enable-background:new 0 0 2560 1600;" xml:space="preserve">
<style type="text/css">
	.st0{fill:#FFFFFF;}
	.st1{fill:#221A4F;}
	.st2{fill:#312458;}
	.st3{fill:#4E406D;}
	.st4{fill:#AAB7C8;}
	.st5{fill:#FEE9B0;}
	.st6{fill:#FD5569;}
	.st7{fill:#FCE8AF;}
	.st8{fill:#FCE7AF;}
	.st9{fill:#EB4056;}
	.st10{fill:#FA5568;}
	.st11{fill:#F4D0A1;}
	.st12{fill:#F1CEA0;}
	.st13{fill:#EECDA0;}
	.st14{fill:#EFCD9F;}
	.st15{fill:#EFCC9F;}
	.st16{fill:#E74056;}
	.st17{fill:#EBCEA0;}
	.st18{fill:#E7C59C;}
	.st19{fill:#E33E54;}
	.st20{fill:#DEBE99;}
	.st21{fill:#E0C099;}
	.st22{fill:#D5B897;}
	.st23{fill:#F45368;}
	.st24{fill:#25194D;}
</style>
<g>
	<g>
		<path class="st0" d="M709,1565.47c0-521.61,0-1043.49,0-1565.47c526.44,0,1052.9,0,1579.55,0c0,521.66,0,1043.43,0,1565.47
			C1762.16,1565.47,1235.59,1565.47,709,1565.47z M1696.57,1454.5c0.28,0.8,0.81,1.21,1.69,1.04c0.34,0.06,0.62,0.21,0.84,0.46
			c0.25,0.79,0.74,1.18,1.59,0.99l0.04,0.02c0.97,2.33,2.84,3.01,5.17,2.83l0.03,0.01c0.52,1.13,1.37,1.63,2.62,1.36l0.04,0.02
			c1.61,2.83,4.64,3.03,7.28,3.63c2.32,0.53,4.86,0.4,5.88-2.58c1.96-2.12,2.71-4.84,3.69-7.45c1.29-0.72,2.11-1.55,0.74-2.94
			c0.22-0.8,0.44-1.61,0.67-2.41c1.24-0.76,2-1.62,0.64-2.95c0.7-2.34,1.4-4.68,2.1-7.01c1.49,0.07,2.98,0.15,4.47,0.22l0.02,0.01
			c0.45,1.16,1.28,1.67,2.52,1.47l0.05,0.03c0.47,2.26,2.09,2.68,4.06,2.56l0.03,0.01c0.51,1.19,1.4,1.62,2.65,1.32l0.04,0.01
			c4.22,2.23,5.3,2.06,8.04-1.23l0.04-0.03c0.84-0.05,1.27-0.5,1.29-1.34c0.65-1.27,1.3-2.54,1.96-3.81
			c1.48-0.65,2.11-1.53,0.77-2.92c0.01-3.58,0.01-7.16,0.02-10.75c1.57-2.1,1.44-3.97-0.75-5.56c-0.23-1.27-0.47-2.54-0.7-3.81
			c0.66-4.99,0.66-4.97,6.37-5.28c3.02-0.16,6.09-0.23,8.19-2.96l0.05-0.03c1.31,0.27,2.21-0.16,2.54-1.53
			c0.43-0.38,0.87-0.76,1.3-1.14c0.92-0.12,1.36-0.62,1.24-1.57c0.38-1.1,0.76-2.21,1.14-3.31c2.08-1.5,2.06-3,0-4.5
			c-1.31-7.06-5.46-12.52-9.96-17.8c-4.46-5.23-9.69-9.8-13.51-15.58c0.05-0.79-0.31-1.22-1.11-1.27
			c-3.69-3.99-7.37-7.99-11.06-11.98c-0.03-0.79-0.45-1.21-1.23-1.27l-0.1-0.1c-0.07-0.79-0.5-1.19-1.28-1.22
			c-12.43-11.6-23.31-24.61-33.37-38.24c-15.18-20.57-20.9-45.13-28.12-69.01c-0.8-14.29-4.89-28.05-6.27-42.31
			c-3.98-40.97-4.57-82.07-3.59-123.06c1.4-58.73-0.52-117.37-1.98-176.03c-0.69-27.46-1.31-54.92,0.05-82.32
			c1.44-29.02,1.4-58.02,0.42-87c-1.2-35.45-4.14-70.85-2.67-106.37c0.04-0.89-0.05-1.78-0.07-2.68c-1.06-37.69-2.85-75.35-4.82-113
			c-0.12-2.3-0.6-4.7,0.47-7.5c11.81,6.82,24.08,6.11,36.2,3.77c21.03-4.06,40.59-12.06,58.21-24.35
			c6.79-4.74,12.69-10.56,17.83-17.09c3.91-4.97,6.37-10.6,8.49-16.56c5.1-14.33-7.84-35.3-24.02-37.11
			c-10.25-1.14-20.47-1.88-30.5,1.38c-6.51,2.12-11.8,0.07-16.46-4.47c-6.48-6.32-9.63-14.28-11.75-22.89
			c-1.37-5.55,0.64-9.71,3.78-14.02c0.99,0.72,1.61,1.01,2.01,1.48c6.17,7.26,13.91,9.1,22.97,6.9c5.42-1.32,10.92-2.28,16.35-3.52
			c6.43-1.47,12.38-0.5,17.94,3.07c3.21,2.06,6.62,3.63,10.49,4.14c8.99,1.17,16.38-4.07,19.32-13.83
			c2.73-9.08-0.41-16.86-8.4-20.91c-8.58-4.35-17.54-4.72-26.75-2.65c-2.39,0.54-4.77,1.33-7.2,1.51c-6.39,0.5-9.16-2.89-7.29-8.99
			c1.37-4.47,2.8-8.99,4.81-13.19c6.41-13.38-2.91-33.85-14.45-37.47c-3.7-1.16-3.96-3.15-3.05-6.53c3.91-14.57,4.66-29.43,4-44.48
			c-0.84-19.26-4.44-38.1-7.72-56.99c-2.15-12.4-6.43-24.13-12.72-35.06c-4.34-7.54-8.57-15.06-10.66-23.64
			c-1.23-5.04-3.96-9.49-7.24-13.47c-3.05-3.68-7.18-2.92-8.77,1.55c-0.81,2.29-1.05,4.78-1.57,7.18c-0.51,2.34-0.67,4.87-3.38,6.59
			c-4.06-4.79-7.02-10.37-11.44-14.79c-2.22-2.22-4.37-4.46-7.24-5.86c-7.17-3.47-11.88-1.07-12.77,6.79
			c-0.42,3.75-0.14,7.58-0.35,11.36c-0.1,1.81,0.76,4.01-1.69,5.61c-2.14-2.4-4.1-4.77-6.23-6.96c-2.49-2.55-4.46-2.34-6.57,0.43
			c-1.13,1.48-1.61,3.2-1.82,4.97c-0.44,3.76-1.08,7.54-1.06,11.31c0.1,20.33-2.28,40.53-3.23,60.81c-0.14,3.04,0.03,6.21-1.41,8.9
			c-1.59,0.36-2.32-0.53-3.1-1.28c-17.19-16.44-36.55-29.92-57-41.94c-5.58-3.28-11.15-6.52-17.12-9.07
			c-6.59-2.82-12.6-2.79-19.03,1.12c-30.32,18.46-56,41.88-76.9,70.56c-1.05,1.44-1.86,3.15-3.18,4.26
			c-2.55,2.14-4.87,1.85-6.27-1.51c0.28-1.02,0.12-1.94-0.62-2.73c-0.25-0.88-0.5-1.76-0.76-2.64c0.38-1.35,0.13-2.58-0.7-3.7
			c-0.24-1.04-0.49-2.08-0.73-3.12c0.55-0.98,0.37-1.85-0.42-2.61c0.09-1.41-0.24-2.72-0.87-3.96c0.43-1.01,0.26-1.92-0.45-2.74
			c0.1-1.41-0.22-2.72-0.89-3.96c0.42-1.01,0.25-1.92-0.47-2.74c0.08-1.42-0.31-2.72-0.95-3.97c0.4-1,0.25-1.91-0.5-2.71
			c-0.23-0.88-0.46-1.76-0.68-2.64c0.39-1.02,0.19-1.93-0.51-2.75c-0.32-1.32-0.64-2.64-0.96-3.96c0.36-1.34,0.17-2.57-0.71-3.66
			c-0.69-3.29-1.39-6.58-2.08-9.87c0.47-1.36,0.45-2.68-0.39-3.91c-0.26-3.15-0.53-6.3-0.79-9.46c0.55-4.91,0.35-9.79-0.55-14.65
			c0.25-2.28,0.07-4.52-0.79-6.67c0.46-1.02,0.28-1.93-0.48-2.74c-0.47-2.68-1.25-5.19-3.72-6.76c-1.8-2.2-3.67-2.3-5.62-0.19
			c-0.5,0.05-0.82,0.32-0.97,0.8l-0.59,0.16l-0.09,0.6c-0.27,0.37-0.54,0.75-0.81,1.12c-1.32,0.55-1.86,1.63-2.04,2.97
			c-0.41,0.27-0.61,0.64-0.59,1.13c-0.72,0.26-1.09,0.73-0.95,1.53l-0.16,0.31c-1.13,0.52-1.81-0.36-2.61-0.86
			c0.24-2.56,0.47-5.12,0.71-7.69c0.79-0.77,0.96-1.62,0.38-2.59c0.62-1.74,0.92-3.5,0.24-5.31c0.51-1.47,0.14-2.49-1.48-2.85l0,0
			c-2.27-2.62-4.38-1.58-6.46,0.27l-0.27,0.14c-0.79-0.11-1.25,0.25-1.45,1l-0.02,0.01c-1.13-0.04-1.79,0.66-2.36,1.5l-0.17,0.14
			c-0.68,0.09-1.07,0.47-1.11,1.17l-0.23,0.2c-0.77-0.02-1.16,0.37-1.22,1.12l-0.14,0.13c-0.79,0.01-1.19,0.42-1.23,1.2l-0.12,0.12
			c-0.78,0.03-1.19,0.44-1.22,1.22l-0.12,0.12c-0.78,0.03-1.19,0.43-1.21,1.22l-0.13,0.13c-0.77,0.04-1.17,0.44-1.17,1.22
			l-0.15,0.17c-0.73,0.04-1.12,0.45-1.21,1.16c-1.21,1.04-2.45,2.05-3.09,3.57c-1,0.39-1.93,1.16-3.11,0.56
			c0.27-3.39,1.73-7.05-2.09-9.55c-0.86-1.22-1.75-1.14-2.67-0.08l-0.03,0.01c-1.24-0.22-1.93,0.46-2.42,1.48
			c-0.81,0.54-1.54,1.14-1.8,2.14c-0.77,0.32-1.19,0.88-1.18,1.73l0.02-0.03c-0.76,0.19-1.14,0.66-1.07,1.46
			c-9.65,16.29-16.16,33.78-19.85,52.33c-0.25,1.28-0.07,2.64-0.09,3.97c-0.75,0.79-0.84,1.65-0.29,2.59
			c-0.84,3.55-1.39,7.13-1.16,10.79c-0.75,1.74-0.8,3.5-0.18,5.28c-0.4,3.14-0.39,6.28-0.01,9.41c-0.64,2.67-0.56,5.32,0.18,7.95
			c0.08,8.97,0.14,17.95,1.17,26.88c-0.59,1.34-0.54,2.65,0.19,3.93c0.5,12.05,1.57,24.04,3.49,35.94c0.92,5.68,0.44,5.55-3.99,6.33
			c-1.1,0.19-2.17,0.51-3.26,0.76c-11.67,2.68-20.35,9.84-27.79,18.74c-2.91,3.49-4.75,7.64-4.97,12.22
			c-0.46,9.75-4.5,18.03-9.9,25.89c-4.04,5.88-7.96,11.86-11.66,17.96c-3.65,6.02-5.59,12.63-5.37,19.76
			c0.27,8.71,5.15,14.64,13.63,16.72c6.96,1.71,13.3-0.09,19.29-3.45c8.13-4.57,14.48-11.06,19.75-18.72
			c5.04-7.33,7.61-15.1,5.18-24.01c-0.29-1.07-0.41-2.2-0.52-3.31c-0.81-8.6,4.31-14.33,12.83-14.15c2.68,0.06,5.36,0.34,8-0.19
			c3.62-0.72,5.65,0.39,6.96,4.16c3.36,9.72,7.39,19.19,14.48,26.93c1.64,1.79,1.17,3.17-0.44,4.46
			c-4.52,3.63-8.88,7.52-13.67,10.76c-16.69,11.31-30.49,25.45-41.51,42.23c-10.23,15.58-16.86,32.24-15.86,51.52
			c0.45,8.72,2.81,16.01,8.39,22.63c8.06,9.55,15.74,19.38,21.29,30.73c3.05,6.24,8.66,9.27,15.45,8.38
			c12.69-1.67,23.36-6.78,29.93-18.74c7-12.74,13.27-25.82,18.46-39.35c3.13-8.15,9.15-11.61,16.66-13.94
			c2.34-0.73,3.37,0.13,3.57,2.39c0.55,6.22,1.25,12.44,1.61,18.67c2.36,40.79,0.85,81.66,2.32,122.48
			c0.87,24.06-0.11,48.19,0.14,72.28c0.15,14.51-0.25,29.01-0.45,43.51c-0.28,20.94,1.16,41.94-0.83,62.82
			c-1.27,13.36-1.53,26.73-1.66,40.1c-0.6,62.5-1.16,125-1.48,187.5c-0.35,68.49-2.41,136.97,0.39,205.49
			c1.63,39.83-7.46,77.57-29.82,111.4c-4.18,6.33-7.97,12.94-11.06,19.87c-3.01,6.76-6.82,13.04-10.83,19.21
			c-3.06,4.71-5.48,9.69-7.49,14.92c-4.72,12.28-8.87,24.78-15.42,36.3c-2.85,5.01-1.33,9.43,3.61,12.62
			c4.06,2.63,8.67,3.59,13.4,3.68c5.35,0.1,10.76,0.21,16.05-0.43c4.57-0.55,4.77,0.43,5.1,4.52c0.53,6.45,1.12,12.91,2.13,19.3
			c0.95,5.99,4.49,7.97,10.14,6.01c2.08-0.72,4.05-1.88,5.94-3.04c4.58-2.81,8.72-6.21,12.74-9.76c4.8-4.24,5.51-4.12,8.7,1.66
			c1.29,2.34,2.23,4.86,3.41,7.27c0.78,1.6,1.49,3.28,2.57,4.67c2.86,3.67,5.8,3.78,8.98,0.49c2.05-2.12,3.36-4.73,4.55-7.38
			c3.19-7.13,6.31-14.29,9.38-21.47c1.07-2.51,2.24-4.75,4.88-6.08c7.37-3.71,14.36-8.14,22.18-10.96
			c6.51-2.35,12.84-5.13,18.84-8.66c3.81-2.24,3.94-2.14,5.89,1.85c0.68,1.39,1.45,2.86,1.65,4.36c0.68,5.28,3.3,9.67,6.12,13.96
			c4.04,6.15,7.96,12.41,12.37,18.3c17.49,23.38,38.26,42.88,65.19,55.22c12.44,5.7,25.3,10.04,38.52,13.28
			c8.5,2.09,14.87,6.31,19.46,13.91c4.53,7.5,11.84,9.83,20.3,8.38c4.45-0.76,8.75-2.34,12.05-5.47c4.1-3.89,8.87-5.66,14.37-6.36
			c4.92-0.62,9.55-2.26,13.22-5.9c3.89-3.85,5.01-8.2,2.88-13.41c-2.11-5.18-5.69-9.07-10.26-12.03c-3.74-2.42-7.68-4.54-11.58-6.7
			c-7.76-4.31-11.95-10.76-11.16-19.72c0.94-10.62-1.04-20.29-7.81-28.75c3.52-2.01,6.78,0.41,10.17,0.61
			c0.32,0.05,0.59,0.2,0.79,0.46c0.49,2.23,2.1,2.7,4.08,2.6l0.03,0.02c0.25,0.82,0.78,1.21,1.65,1.08c0.35,0.06,0.65,0.22,0.9,0.49
			c0.21,0.79,0.7,1.14,1.52,1.02L1696.57,1454.5z M1290.82,423.66c-11.15-2.02-20.43,10.35-18.76,20.37
			c1.04,6.22,6.13,9.87,10.88,6.88c5.2-3.28,10.73-3.98,16.41-4.71c6.29-0.81,9.83-4.8,12.14-10.18c1.69-3.94,1.61-7.8-1.53-11.17
			c-3.46-3.72-7.14-4.7-12.05-2.75C1295.39,423.11,1293,424.21,1290.82,423.66z"/>
		<path class="st1" d="M1725.44,1454.84c-0.98,2.61-1.73,5.33-3.69,7.45c-4.61,2.45-8.82-0.13-13.16-1.05c0,0-0.04-0.02-0.04-0.02
			c-0.56-1.06-1.43-1.52-2.62-1.36c0,0-0.03-0.01-0.03-0.01c-1.29-1.74-3.02-2.67-5.17-2.83c0,0-0.04-0.02-0.04-0.02
			c-0.23-0.82-0.78-1.12-1.59-0.99c-0.23-0.25-0.51-0.41-0.84-0.46c-0.27-0.83-0.85-1.15-1.69-1.04c0,0-0.01-0.01-0.01-0.01
			c-0.2-0.8-0.69-1.16-1.52-1.02c-0.24-0.26-0.54-0.43-0.9-0.49c-0.25-0.83-0.8-1.18-1.65-1.08c0,0-0.03-0.02-0.03-0.02
			c-0.9-1.59-2.27-2.44-4.08-2.6c-0.2-0.25-0.47-0.41-0.79-0.46c-1.23-2.09-3.36-3.14-5.48-3.29c-6.98-0.5-13.07-3.83-19.62-5.68
			c-1.26-0.36-2.5-1.67-4.83-0.07c6.51,2.92,12.85,4.87,18.49,8.24c0.48,0.51,0.98,0.51,1.5,0.07l-0.22,0.12
			c6.77,8.45,8.75,18.13,7.81,28.75c-0.79,8.96,3.4,15.41,11.16,19.72c3.9,2.16,7.84,4.28,11.58,6.7
			c4.57,2.96,8.14,6.86,10.26,12.03c2.13,5.21,1.01,9.56-2.88,13.41c-3.67,3.64-8.3,5.27-13.22,5.9c-5.49,0.7-10.26,2.47-14.37,6.36
			c-3.3,3.13-7.61,4.71-12.05,5.47c-8.46,1.45-15.78-0.88-20.3-8.38c-4.59-7.6-10.96-11.82-19.46-13.91
			c-13.22-3.25-26.09-7.58-38.52-13.28c-26.93-12.35-47.7-31.84-65.19-55.22c-4.41-5.89-8.32-12.15-12.37-18.3
			c-2.82-4.29-5.44-8.68-6.12-13.96c-0.19-1.5-0.96-2.97-1.65-4.36c-1.95-3.99-2.08-4.09-5.89-1.85
			c-5.99,3.53-12.33,6.31-18.84,8.66c-7.82,2.82-14.82,7.25-22.18,10.96c-2.64,1.33-3.81,3.57-4.88,6.08
			c-3.07,7.18-6.19,14.34-9.38,21.47c-1.18,2.65-2.5,5.26-4.55,7.38c-3.18,3.29-6.13,3.17-8.98-0.49c-1.08-1.39-1.79-3.07-2.57-4.67
			c-1.17-2.4-2.12-4.93-3.41-7.27c-3.19-5.77-3.91-5.9-8.7-1.66c-4.02,3.56-8.16,6.95-12.74,9.76c-1.89,1.16-3.86,2.32-5.94,3.04
			c-5.65,1.96-9.19-0.02-10.14-6.01c-1.01-6.39-1.6-12.85-2.13-19.3c-0.34-4.09-0.53-5.07-5.1-4.52c-5.29,0.63-10.7,0.53-16.05,0.43
			c-4.73-0.09-9.33-1.05-13.4-3.68c-4.94-3.19-6.46-7.61-3.61-12.62c6.55-11.52,10.7-24.03,15.42-36.3
			c2.01-5.23,4.44-10.21,7.49-14.92c4.01-6.17,7.82-12.45,10.83-19.21c3.09-6.94,6.88-13.54,11.06-19.87
			c22.36-33.83,31.45-71.57,29.82-111.4c-2.81-68.52-0.74-136.99-0.39-205.49c0.32-62.5,0.88-125,1.48-187.5
			c0.13-13.37,0.39-26.74,1.66-40.1c1.99-20.89,0.55-41.88,0.83-62.82c0.19-14.5,0.6-29,0.45-43.51
			c-0.26-24.09,0.72-48.22-0.14-72.28c-1.47-40.82,0.04-81.69-2.32-122.48c-0.36-6.23-1.06-12.45-1.61-18.67
			c-0.2-2.26-1.23-3.12-3.57-2.39c-7.51,2.33-13.53,5.79-16.66,13.94c-5.19,13.53-11.46,26.61-18.46,39.35
			c-6.58,11.96-17.24,17.07-29.93,18.74c-6.78,0.89-12.39-2.14-15.45-8.38c-5.55-11.35-13.23-21.18-21.29-30.73
			c-5.58-6.61-7.94-13.91-8.39-22.63c-1-19.28,5.62-35.94,15.86-51.52c11.02-16.78,24.82-30.92,41.51-42.23
			c4.79-3.24,9.14-7.13,13.67-10.76c1.61-1.29,2.08-2.67,0.44-4.46c-7.09-7.75-11.12-17.21-14.48-26.93
			c-1.3-3.78-3.33-4.88-6.96-4.16c-2.65,0.53-5.32,0.24-8,0.19c-8.52-0.18-13.65,5.55-12.83,14.15c0.1,1.11,0.22,2.24,0.52,3.31
			c2.43,8.91-0.14,16.68-5.18,24.01c-5.27,7.66-11.62,14.15-19.75,18.72c-5.98,3.36-12.33,5.16-19.29,3.45
			c-8.47-2.08-13.36-8-13.63-16.72c-0.22-7.13,1.72-13.73,5.37-19.76c3.7-6.1,7.62-12.08,11.66-17.96c5.4-7.86,9.44-16.14,9.9-25.89
			c0.22-4.58,2.05-8.74,4.97-12.22c7.43-8.9,16.12-16.06,27.79-18.74c1.09-0.25,2.16-0.57,3.26-0.76c4.42-0.77,4.9-0.64,3.99-6.33
			c-1.92-11.91-2.99-23.9-3.49-35.94c1.47-1.38,1.31-2.69-0.19-3.93c-1.04-8.93-1.09-17.9-1.17-26.88c1.61-2.69,1.69-5.34-0.18-7.95
			c-0.39-3.14-0.4-6.28,0.01-9.41c1.66-1.71,1.68-3.47,0.18-5.28c-0.23-3.66,0.33-7.24,1.16-10.79c1.2-0.74,1.56-1.57,0.29-2.59
			c0.02-1.32-0.16-2.69,0.09-3.97c3.69-18.55,10.2-36.04,19.85-52.33c0.75-0.2,1.1-0.69,1.07-1.46c0,0-0.02,0.03-0.02,0.03
			c0.82-0.28,1.25-0.83,1.18-1.73c0.26-1,0.99-1.6,1.8-2.14c1.12,0.02,2-0.36,2.42-1.48c0,0,0.03-0.01,0.03-0.01
			c0.89,0.03,1.78,0.05,2.67,0.08c3.82,2.5,2.35,6.16,2.09,9.55c-0.73,0.67-0.78,1.5-0.05,2.06c0.35,0.27,1.21,0.16,1.68-0.09
			c0.95-0.51,1.47-1.41,1.48-2.53c0.64-1.53,1.88-2.54,3.09-3.57c0.69-0.09,1.13-0.44,1.21-1.16c0,0,0.15-0.17,0.15-0.17
			c0.71-0.1,1.1-0.5,1.17-1.22c0,0,0.13-0.13,0.13-0.13c0.73-0.08,1.13-0.49,1.21-1.22c0,0,0.12-0.12,0.12-0.12
			c0.73-0.08,1.14-0.49,1.22-1.22c0,0,0.12-0.12,0.12-0.12c0.73-0.07,1.13-0.48,1.23-1.2c0,0,0.14-0.13,0.14-0.13
			c0.7-0.05,1.11-0.42,1.22-1.12c0,0,0.23-0.2,0.23-0.2c0.69-0.08,1.02-0.52,1.11-1.17c0,0,0.17-0.14,0.17-0.14
			c1.12,0.03,2-0.34,2.36-1.5c0,0,0.02-0.01,0.02-0.01c0.77,0.08,1.24-0.27,1.45-1c0,0,0.27-0.14,0.27-0.14
			c2.15-0.09,4.3-0.18,6.46-0.27c0,0,0,0,0,0c-0.13,1.27,0.23,2.3,1.48,2.85c0.68,1.8,0.37,3.56-0.24,5.31
			c-1.22,0.7-1.62,1.53-0.38,2.59c-0.24,2.56-0.47,5.12-0.71,7.69c-0.32,1.44-1.06,3.36,0.98,3.71c1.62,0.28,1.56-1.6,1.63-2.86
			c0,0,0.16-0.31,0.16-0.31c0.73-0.25,1.06-0.76,0.95-1.53c-0.02-0.49,0.18-0.87,0.59-1.13c1.64-0.33,2.2-1.4,2.04-2.97
			c0.27-0.37,0.54-0.75,0.81-1.12c0.49-0.02,0.72-0.27,0.68-0.76c0.15-0.48,0.47-0.75,0.97-0.8c1.87,0.06,3.75,0.12,5.62,0.19
			c2.47,1.58,3.25,4.09,3.72,6.76c-1.46,1.2-0.77,2.02,0.48,2.74c0.85,2.15,1.03,4.39,0.79,6.67c-1.32,4.94-1.82,9.85,0.55,14.65
			c0.26,3.15,0.53,6.3,0.79,9.46c-1.4,1.46-1.09,2.74,0.39,3.91c0.69,3.29,1.39,6.58,2.08,9.87c-0.81,1.43-0.66,2.66,0.71,3.66
			c0.32,1.32,0.64,2.64,0.96,3.96c-1.47,1.22-0.76,2.04,0.51,2.75c0.23,0.88,0.46,1.76,0.68,2.64c-1.37,1.18-0.69,1.99,0.5,2.71
			c0.63,1.25,1.03,2.55,0.95,3.97c-1.44,1.18-0.79,2.01,0.47,2.74c0.67,1.24,0.98,2.55,0.89,3.96c-1.46,1.17-0.8,2,0.45,2.74
			c0.64,1.25,0.96,2.56,0.87,3.96c-1.22,1.09-0.79,1.91,0.42,2.61c0.24,1.04,0.49,2.08,0.73,3.12c-0.9,1.45-0.77,2.7,0.71,3.7
			c0.25,0.88,0.5,1.76,0.76,2.64c-1.39,1.27-0.58,2.04,0.62,2.72c1.4,3.35,3.72,3.64,6.27,1.51c1.32-1.11,2.14-2.82,3.18-4.26
			c20.9-28.68,46.58-52.1,76.9-70.56c6.43-3.92,12.44-3.95,19.03-1.12c5.97,2.56,11.53,5.79,17.12,9.07
			c20.46,12.02,39.81,25.5,57,41.94c0.78,0.75,1.51,1.64,3.1,1.28c1.44-2.69,1.27-5.86,1.41-8.9c0.95-20.27,3.33-40.47,3.23-60.81
			c-0.02-3.77,0.62-7.55,1.06-11.31c0.21-1.77,0.69-3.5,1.82-4.97c2.11-2.77,4.09-2.98,6.57-0.43c2.14,2.19,4.1,4.56,6.23,6.96
			c2.45-1.6,1.58-3.8,1.69-5.61c0.22-3.78-0.07-7.61,0.35-11.36c0.89-7.86,5.6-10.26,12.77-6.79c2.88,1.39,5.02,3.64,7.24,5.86
			c4.42,4.42,7.37,10,11.44,14.79c2.71-1.72,2.87-4.25,3.38-6.59c0.52-2.4,0.76-4.89,1.57-7.18c1.59-4.47,5.72-5.24,8.77-1.55
			c3.29,3.97,6.01,8.43,7.24,13.47c2.09,8.58,6.32,16.1,10.66,23.64c6.29,10.93,10.57,22.66,12.72,35.06
			c3.27,18.89,6.88,37.74,7.72,56.99c0.65,15.05-0.09,29.9-4,44.48c-0.91,3.38-0.65,5.37,3.05,6.53
			c11.54,3.62,20.85,24.09,14.45,37.47c-2.01,4.2-3.43,8.72-4.81,13.19c-1.87,6.1,0.89,9.49,7.29,8.99c2.42-0.19,4.8-0.98,7.2-1.51
			c9.21-2.08,18.17-1.7,26.75,2.65c7.99,4.05,11.12,11.83,8.4,20.91c-2.93,9.76-10.32,15.01-19.32,13.83
			c-3.87-0.5-7.28-2.07-10.49-4.14c-5.56-3.57-11.51-4.54-17.94-3.07c-5.43,1.24-10.94,2.21-16.35,3.52
			c-9.06,2.2-16.79,0.36-22.97-6.9c-0.4-0.48-1.03-0.77-2.01-1.48c-3.13,4.31-5.14,8.47-3.78,14.02
			c2.12,8.61,5.27,16.57,11.75,22.89c4.66,4.55,9.95,6.59,16.46,4.47c10.03-3.26,20.25-2.53,30.5-1.38
			c16.18,1.81,29.12,22.77,24.02,37.11c-2.12,5.96-4.58,11.59-8.49,16.56c-5.14,6.53-11.04,12.35-17.83,17.09
			c-17.62,12.29-37.18,20.29-58.21,24.35c-12.12,2.34-24.39,3.05-36.2-3.77c-1.07,2.8-0.59,5.2-0.47,7.5
			c1.97,37.65,3.76,75.31,4.82,113c0.03,0.89,0.11,1.79,0.07,2.68c-1.47,35.52,1.47,70.92,2.67,106.37
			c0.98,28.99,1.02,57.98-0.42,87c-1.36,27.4-0.74,54.86-0.05,82.32c1.46,58.66,3.39,117.3,1.98,176.03
			c-0.98,41-0.38,82.1,3.59,123.06c1.38,14.26,5.47,28.02,6.27,42.31c7.22,23.89,12.94,48.44,28.12,69.01
			c10.06,13.63,20.93,26.64,33.37,38.24c0.08,0.77,0.51,1.18,1.29,1.22c0,0,0.1,0.1,0.1,0.1c0.05,0.78,0.45,1.21,1.24,1.27
			c3.69,3.99,7.37,7.99,11.06,11.98c-0.07,0.81,0.33,1.21,1.11,1.27c3.82,5.79,9.05,10.35,13.51,15.58
			c4.5,5.28,8.66,10.74,9.96,17.8c-0.62,1.5-0.59,3,0,4.5c-0.38,1.1-0.76,2.21-1.14,3.31c-0.82,0.2-1.2,0.75-1.24,1.56
			c-0.43,0.38-0.87,0.76-1.3,1.14c-1.13,0.03-2.06,0.41-2.54,1.53l-0.05,0.03c-5.36,1.68-10.94,1.74-16.66,1.39
			c0.25,3.02,0.53,5.14,2.11,6.85c0.23,1.27,0.47,2.54,0.7,3.81c-0.62,1.97-0.36,3.82,0.75,5.56c-0.01,3.58-0.01,7.16-0.02,10.75
			c-0.77,0.84-1.09,1.8-0.77,2.92c-0.65,1.27-1.3,2.54-1.96,3.81c-0.78,0.11-1.22,0.55-1.29,1.34c0,0-0.04,0.03-0.04,0.03
			c-2.55,1.25-5.29,1.33-8.04,1.23c0,0-0.04-0.01-0.04-0.01c-0.61-0.99-1.47-1.47-2.65-1.32c0,0-0.03-0.01-0.03-0.01
			c-0.91-1.55-2.25-2.44-4.06-2.56c0,0-0.05-0.03-0.05-0.03c-0.49-1.09-1.34-1.57-2.52-1.47c0,0-0.02-0.01-0.02-0.01
			c-2.7-3.05-3.32-3.08-4.47-0.22c-0.7,2.34-1.4,4.68-2.1,7.01c-0.84,0.85-1.15,1.81-0.64,2.95c-0.22,0.8-0.44,1.61-0.67,2.41
			C1725.32,1452.72,1724.99,1453.68,1725.44,1454.84z M1366.92,140.4c0.23,1,0.62,1.24,1.28,0.28c6.69-3.38,9.04-8.9,7.97-16.11
			c-0.27-1.04-0.69-1.1-1.24-0.18C1371.48,129.33,1369.28,134.9,1366.92,140.4z M1404.2,116.75c-0.28-2.11-1.24-1.93-2.5-0.74
			c-4.68,4.04-9.38,8.07-13.29,13.79c5.03,1.61,9.6,3.07,14.88,4.75C1402.35,128.16,1402.84,122.42,1404.2,116.75z M1322.65,388.35
			c0.8-0.08,1.34-0.51,1.67-1.23c0.44-0.08,0.78-0.31,1.01-0.69c0.61,0.04,0.9-0.27,0.93-0.86c7.14-5.72,10.49-13.11,9.72-22.27
			c-0.28-3.33-0.77-6.64-1.01-9.98c-0.9-11.98,7.36-21.64,19.31-21.63c3.99,0,8.07-0.36,11.96-1.22
			c10.71-2.36,16.36-12.62,12.36-22.51c-2.78-6.86-8.5-10.53-15.64-10.84c-15.46-0.68-28.14,5.53-38.3,17.05
			c-1.35,1.53-2.17,3.37-2.64,5.35c-3.02,12.78-8.92,24.18-16.35,34.92c-3.28,4.74-6.68,9.48-8.5,15.08
			c-3.4,3.88-4.47,8.72-4.98,13.56c-0.96,9.18,4.83,14.6,13.85,13.11c6.24-1.03,11.9-3.55,16.64-7.87L1322.65,388.35z
			 M1705.06,349.32c-4,9.63-0.52,16.91,9.3,19.48c2.87,0.75,5.74,0.61,8.62,0.07c4.82-0.91,9.68-1.63,14.46-2.7
			c7.32-1.63,14.17-0.39,20.74,2.94c1.79,0.91,3.5,1.98,5.3,2.86c6.74,3.28,10.72,2.13,14.53-4.37c1.11-1.9,2.04-4,2.57-6.14
			c1.61-6.46-0.79-10.31-7.22-12c-5.09-1.34-10.16-1.07-15.21,0.26c-2.47-0.32-4.88,0.18-7.31,0.52c-3.79,0.54-7.57,0.37-11.26-0.75
			c-5.98-1.82-8.33-5.03-8.39-11.25c-0.04-4.3,1.49-8.32,2.04-12.51c0.76-5.74,2.56-11.34,2.49-17.17
			c-0.12-9.76-5.56-15.36-15.2-15.76c-2-0.08-4.02-0.08-6.02,0.11c-7.73,0.72-12.22,7.2-10.05,14.63c1.25,4.27,2.82,8.45,4.2,12.69
			c2.31,7.06,2.16,13.99-0.82,20.88C1706.7,343.75,1705.98,346.58,1705.06,349.32z M1624.89,1507.36c0.56,0.61,1.15,1.03,1.89,0.25
			c-0.4-0.3-0.81-0.6-1.21-0.9c-0.2-0.39-0.33-0.85-0.62-1.15c-28.97-29.87-46.8-65.78-57.18-105.68c-4.6-17.68-7.92-35.6-8.74-53.9
			c0.18-0.87,0.5-1.73,0.53-2.61c0.45-13.13,7.98-21.67,18.14-28.78c12.28-8.59,33.76-2.31,38.33,13.77
			c1.54,5.42,2.57,10.85,1.73,16.5c-0.65,4.41-1.41,8.81-1.96,13.23c-0.79,6.32,1.75,9.27,8.01,9.45c1.56,0.04,3.12-0.16,4.68-0.15
			c13.87,0.13,23.55,9.79,23.8,23.65c0.09,4.74-0.65,9.4-1.9,13.88c-1.05,3.74-0.09,6.76,2.21,9.23c3.37,3.61,6.71,7.08,8.31,11.93
			c0.68,2.07,2.82,2.75,4.65,3.56c6.77,2.99,13.79,5.52,21.15,6.11c24.67,1.97,40.3-6.18,50.23-24.45
			c7.89-14.52,9.33-29.58-0.63-44.3c-8.77-12.98-18.89-24.88-28.97-36.8c-22.53-26.63-37.73-56.77-43.81-91.2
			c-4.03-22.85-7.42-45.8-7.56-69.11c-0.06-10.04-0.21-20.08-1.23-30.09c-4.36-42.69-5.6-85.47-4.12-128.36
			c0.86-24.74,2.5-49.49,0.24-74.25c-1.2-13.13-1.19-26.31-1.09-39.47c0.24-29.9,0.05-59.8-0.04-89.7
			c-0.04-12.96-1.45-25.83-1.32-38.78c0.17-16.73-0.04-33.47-0.12-50.21c-0.03-5.32-0.08-5.36-5.68-5.36
			c-5.13,0-10.27,0.12-15.4,0.19c-1.34,0.02-2.69,0.15-4.01,0.02c-4.34-0.43-6.39-4.54-4.15-8.27c1.36-2.26,3.62-2.25,5.89-2.34
			c6.47-0.25,12.93-0.72,19.4-0.82c2.95-0.05,3.96-1.12,3.77-3.98c-0.28-4-0.38-8.03-0.45-12.04c-0.04-2.35-0.73-3.79-3.42-3.81
			c-4.91-0.04-9.81-0.31-14.72-0.37c-3.02-0.04-5.67,0.98-7.83,3.19c-3.52,3.58-8.08,5.59-12.46,7.72
			c-7.39,3.59-14.36,2.23-20.56-2.97c-4.26-3.57-6.67-8.29-7.83-13.69c-2-9.3,1.51-18.61,8.66-22.89c7.35-4.4,16.71-3.11,24.05,3.53
			c2.47,2.24,4.63,4.83,6.87,7.32c1.4,1.56,2.93,2.67,5.16,2.59c6.02-0.21,12.05-0.4,18.07-0.51c2.55-0.04,3.62-1.2,3.46-3.72
			c-0.11-1.78-0.07-3.57-0.07-5.35c0.11-52.45-2.06-104.84-4.55-157.22c-0.14-2.88-0.44-5.76-0.66-8.64
			c1.04-4.29,0.51-8.32-1.6-12.25c-2.35-4.36-3.49-9.11-4.26-14.01c-1.12-7.09-1.2-14.22-1.51-21.35
			c-0.5-11.37-0.86-22.76-1.99-34.07c-1.46-14.69-6.86-27.61-18.89-37.11c-4.54-3.58-8.74-7.59-13.09-11.4
			c-5.43-9.26-7.42-19.14-4.55-29.58c3.42-12.45,11.2-20.23,24.14-21.73c6.91-0.8,12.2,0.95,16.06,6.96
			c1.59,2.47,2.58,5.55,5.46,7.39c1.23-1.77,0.97-3.33,0.96-4.82c-0.06-11.38-0.64-22.74-1.37-34.1
			c-0.39-6.08-2.47-10.57-7.13-14.92c-13.26-12.37-17.07-27.78-11.83-45.18c1.28-4.26,0.87-7.95-1.91-11.27
			c-1.99-2.39-4.13-4.7-6.47-6.74c-21.32-18.55-44.05-34.85-70.7-45.14c-3.93-1.52-7.14-1.46-10.79,0.29
			c-8.29,3.98-15.96,8.94-23.33,14.37c-18.79,13.83-35.82,29.47-49.59,48.45c-2.76,3.8-3.4,7.26-2.34,12.26
			c3.81,17.97,0.75,35-12.52,48.35c-4.45,4.48-6.34,8.62-6.43,14.35c-0.03,2.23-0.27,4.45-0.32,6.68
			c-0.23,9.76-0.21,9.68,9.73,10.52c5.67,0.48,11.65,1.43,14.04,7.36c2.49,6.2-1.12,11.23-5.3,15.53c-3.88,4-8.03,7.74-12.05,11.61
			c-5.67,5.47-5.43,9.53,0.7,14.26c5.34,4.12,11.39,7,17.26,10.2c10.65,5.79,16.27,14.85,17.5,26.82
			c1.29,12.49-0.86,24.42-5.65,35.94c-1.7,2.83-3.34,5.69-5.1,8.47c-4.51,7.13-10.58,12.41-18.56,15.39
			c-7.5,2.8-7.5,2.81-6.72,10.48c0.07,0.65,0.32,1.27,0.49,1.91c-0.14,0.88-0.39,1.75-0.4,2.63c-0.53,49.99-3.24,99.93-2.08,149.97
			c1.11,47.75,0.85,95.52,1.28,143.28c0.11,11.6,0.81,23.19,0.35,34.81c-0.52,13.16-0.54,26.34,0.13,39.5
			c0.28,5.56,0.3,5.61,5.34,6.51c3.07,0.55,6.19,0.87,9.27,1.39c10.16,1.7,12.57,4.93,11.11,15c-1.75,12.15-3.66,24.28-4.72,36.52
			c-1.62,18.68-3.28,37.35-3.23,56.14c0.01,5.12-1.42,6.27-6.54,5.89c-3.34-0.25-6.66-0.78-9.99-1.04
			c-4.51-0.35-4.59-0.29-4.53,4.09c0.42,29.9-0.88,59.8,0.23,89.7c0.22,6.02,0.12,12.06-0.2,18.07
			c-2.61,48.2-2.17,96.37,0.56,144.55c1.64,29.03-3.71,56.83-15.74,83.36c-11.65,25.68-26.23,49.73-40.92,73.7
			c-4.01,6.54-5.75,13.01-3.14,20.31c7.58,21.2,23.03,33.81,44.12,40.22c0.55,0.71,1.26,0.85,2.09,0.61c2.65,0.72,5.31,0.88,8,0.25
			c3.49,0.93,6.62-0.39,9.69-1.68c12.99-5.46,25.27-12.25,36.87-20.22c4.96-3.41,9.39-7.53,13.55-11.9
			c9.73-10.22,9.71-10.21,7.61-24.16c-1.95-13-4.76-25.88-5.71-39.01c-0.33-4.51-1.09-8.77-3.33-12.71c0.67-2.41,1.85-4.55,3.6-6.34
			c3.11-3.16,7.15-2.81,9.65,0.85c1.28,1.88,1.77,4.06,2.12,6.29c0.75,4.88,0.66,9.79,0.67,14.7c0.01,9.37-0.13,18.76,1.14,28.07
			c3.49,25.49,13.16,48.51,28.1,69.36c10.3,14.37,21.72,27.73,35.92,38.48c1.69,2.48,4.34,3.8,6.78,5.28
			c12.82,7.76,26.47,13.78,40.48,19.02C1623.09,1507.32,1624.02,1507.26,1624.89,1507.36z M1683.13,1494.75
			c-4.11-5.61-5.75-11.95-5.61-18.83c0.04-2,0.03-4.01-0.05-6.01c-0.45-11.34-5.69-18.1-16.53-21.43c-1.7-0.52-3.46-0.96-5.04-1.75
			c-9.68-4.87-15.68-12.26-15.75-23.57c-0.04-5.79,0.28-11.56,0.94-17.33c0.58-5.08,0.76-10.21,0.89-15.33
			c0.14-5.4-2.4-9.25-7.13-11.92c-3.77-2.13-7.81-3.27-11.99-3.91c-14.15-2.17-18.35-8.52-15.39-22.23
			c1.68-7.78,1.1-15.58-2.29-22.89c-5.41-11.67-13.55-13.55-23.82-7.21c-7.97,4.92-11.79,12.56-12.12,21.86
			c-0.31,8.69-0.22,17.37,1.65,25.93c0.04,1.11,0,2.22,0.13,3.32c1.36,11.12,5.22,21.65,7.79,32.48
			c5.71,24.12,15.94,46.4,28.83,67.39c8.38,13.65,17.09,27.3,29.81,37.59c8.19,6.62,15.38,13.9,21.43,22.72
			c6.27,9.14,13.09,9.81,20.77,5.28c2.5-1.47,5.23-2.56,7.35-4.6c2.18-2.09,4.78-3.08,7.69-3.75c4.34-0.99,8.72-2.03,12.86-3.62
			c6.03-2.31,7.02-6.34,3.18-11.57c-2.27-3.1-5.08-5.67-8.62-7.25C1694.91,1504.89,1688.57,1500.47,1683.13,1494.75z
			 M1386.76,350.93c1.33,3.85,3.59,6.9,7.36,9.07c1.92-4.06,3.04-7.89,3.74-11.81c0.95-5.26,1.5-10.6,2.58-15.83
			c3.04-14.74,9.36-20.35,24.42-21.71c2.27-0.2,3.15-0.98,3.3-3.14c0.36-5.11,0.81-10.21,1.24-15.32c0.1-1.16-0.05-2.28-0.96-3.06
			c-3.35-2.85-4.64-7-6.76-10.63c-0.3-1.75-0.6-3.5-0.91-5.25c-2.35-13.21-0.78-25.88,6.32-37.36c2.76-4.47,3.87-8.92,3.48-13.91
			c-0.3-3.77-0.8-7.53-1.39-11.27c-2.31-14.59-7.27-28.47-11.7-42.48c-2.44-7.7-6.08-14.81-11.45-20.98
			c-7.53-8.67-17.58-10.66-27.67-5.3c-3.04,1.62-5.15,4.23-7.26,6.81c-10.36,12.67-13.33,28.03-14.95,43.59
			c-1.88,18-0.9,36.09,0.36,54.11c0.88,12.45,2.57,24.82,5.17,37.06c0.83,3.9,2.36,6.28,6.57,7.09c6.49,1.26,11.85,4.97,16.97,9
			c2.17,1.71,3.86,3.74,4.36,6.51c1.86,10.45,0.57,20.03-8.08,27.35c-1.53,1.29-2.48,2.32-1.38,4.41
			C1382.41,342.2,1383.63,347.05,1386.76,350.93z M1736.72,416.74c-6.06-0.24-11.99,0.77-17.92,1.78
			c-7.09,1.21-13.23-0.67-18.51-5.48c-7.12-6.48-11.67-14.55-14.54-23.63c-3.72-11.75-3.14-23.77-1.87-35.78
			c0.45-4.23,0.9-8.46,0.39-12.66c-0.71-5.9-3.37-10.79-9.35-12.7c-5.97-1.91-10.97,0.25-14.83,5.01c-1.84,2.27-3.86,4.32-6.3,5.93
			c-6.36,4.22-11.15,3.34-15.4-2.93c-1.12-1.65-1.99-3.47-2.9-5.25c-1.64-3.21-3.67-6.11-6.31-8.57c-6.05-5.63-14.5-5.64-20.46,0
			c-9.31,8.82-9.88,25.26-0.99,34.45c4.64,4.8,9.48,9.45,14.5,13.86c10.58,9.29,16,21.12,18.16,34.78
			c1.68,10.64,1.36,21.33,1.29,32.02c-0.08,12.21,2.19,23.99,6.74,35.23c3.89,9.62,10.29,17.12,20.7,20.3
			c3.34,2.08,7.09,2.5,10.89,2.56c20.81,0.31,39.24-6.96,56.38-18.02c5.23-3.37,10.03-7.39,15.05-11.1
			c5.78-4.28,10.95-9.16,14.61-15.42c8.55-14.66-0.03-32.34-16.76-35.03C1744.96,415.39,1740.88,415.97,1736.72,416.74z
			 M1659.99,269.85c-1.76,1.69-3.31,3.71-5.33,4.98c-3.12,1.95-3.76,4.41-3.41,7.88c1.04,10.19,1.1,20.44,1.18,30.68
			c0.03,4.33,0.48,8.59,1.46,13.65c4.17-3.12,7.81-5.21,11.78-6.65c10.75-3.92,19.95,0.52,23.98,11.33
			c2.71,7.27,2.87,14.77,2.87,22.36c0,2.86-0.62,5.94,1.67,8.66c2.71-9.36,3.39-19.16,7.45-28.03c1.84-3.73,0.77-7.46-0.23-11.1
			c-0.94-3.43-2.32-6.74-3.39-10.14c-4.34-13.74-1.2-22.62,11.63-28.77c5.22-2.5,7.27-6.03,8.45-10.92
			c0.52-2.16,1.11-4.33,1.41-6.53c3.37-24.73,2.75-49.36-2.07-73.87c-2.41-12.26-4.93-24.48-8.91-36.35
			c-3.45-10.27-9.37-18.56-18.79-24.34c-21.02-12.91-47.69-2.6-53.66,21.34c-4.14,16.62-3.28,33.61-1.93,50.55
			c0.48,5.98,2.82,9.94,9.05,11.58c6.05,1.6,10.77,5.51,13.54,11.17C1663.46,241.04,1666.29,255.12,1659.99,269.85z M1393.94,498.25
			c0.55-0.95,1.22-1.86,1.64-2.86c2.93-6.98,5.49-14.14,8.78-20.95c4.94-10.23,12.45-16.7,24.83-15.15
			c6.94,0.87,13.16-1.48,19.05-4.97c15.98-9.46,21.93-24.41,23.23-41.97c0.56-7.6-1.24-14.57-5.21-21.05
			c-3.25-5.3-8.1-8.86-13.17-12.12c-4.31-2.77-9.13-4.83-13.15-7.95c-11.71-9.1-11.08-16.19-2.5-24.88
			c3.04-3.08,6.55-5.14,10.61-6.69c5.27-2.02,9.26-7.23,8.19-10.24c-1.83-5.18-6.32-5.64-10.99-5.6c-4.08,0.04-7.88-0.9-11.5-2.96
			c-7.24-4.13-14.21-2.94-19.82,3.2c-5.26,5.76-6.85,12.81-7.04,20.37c-0.46,18.19-8.06,33.09-21.27,45.27
			c-4.09,3.77-8.43,7.29-13.08,10.4c-10.81,7.23-20.39,15.88-29.15,25.45c-4.08,4.45-7.75,9.18-10.15,14.78
			c-4.64,5.41-5.9,12.29-8.21,18.74c-4.51,12.53-2.27,24.01,4.66,34.99c5.1,8.09,10.05,16.27,15.01,24.45
			c2.08,3.42,3.95,6.96,6.02,10.38c2.49,4.13,6.3,5.28,10.9,4.66c6.24-0.85,11.52-3.78,15.66-8.24
			C1384.61,517.43,1390.47,508.54,1393.94,498.25z M1438.9,912.05c-0.34,10.29-0.45,22.56,0.17,34.83c0.33,6.54,0.31,6.54,6.43,7.63
			c5.11,0.91,5.29,0.85,5.78-4.23c2.48-25.53,5.91-50.96,7.66-76.57c0.95-13.83,1.08-13.67-12.81-13.04
			c-3.54,0.16-4.45,1.37-4.73,4.63C1440.12,880.2,1439.27,895.12,1438.9,912.05z M1612.56,674.32c0.13-6.55-2.67-11.6-8.22-14.93
			c-6.44-3.85-13.51-1.44-16.55,5.46c-2.09,4.75-1.73,9.54,0.28,14.2c2.86,6.64,9.31,10.6,15.18,9.47
			C1609.23,687.38,1612.41,682.53,1612.56,674.32z M1374.16,1401.92c-3.28,9.05-6.2,17.13-9.84,24.93
			c-0.99,2.12,0.05,3.49,2.37,3.51c5.33,0.04,10.66,0.04,15.99-0.12c2.12-0.06,4.5,0.61,6.72-1.85
			C1383.92,1420.31,1379.31,1411.54,1374.16,1401.92z M1400.93,1452.23c-0.26,3.11-0.55,6.23-0.06,9.34
			c0.23,1.5,1.27,2.69,2.77,1.71c5.77-3.78,11.54-7.62,16.2-12.79c1.23-1.36,0.89-2.95-0.83-3.9c-4.29-2.38-8.61-4.69-12.89-7.07
			c-2.47-1.38-3.96-0.4-4.31,2.07C1401.32,1445.1,1401.2,1448.68,1400.93,1452.23z M1751.25,1376.06
			c0.31,8.15,1.07,14.74-0.44,21.23c-0.35,1.51,0.23,2.68,1.73,3.09c3.2,0.87,6.42,1.89,9.78,1.67c3.32-0.21,4.78-2,4.42-5.29
			c-0.27-2.48-1.49-4.62-2.88-6.64C1760.61,1385.36,1756.64,1381.25,1751.25,1376.06z M1670.25,120.71
			c-4.99-6.61-9.14-12.01-14.29-16.52c-2.4-2.1-4.29-1.36-4.46,1.77c-0.29,5.47-0.08,10.97-0.08,16.8
			C1657.41,121.6,1663,120.26,1670.25,120.71z M1441.17,1464.63c5.09-3.93,10.03-15.05,9.59-21.46c-4.62,1.63-9.18,3.26-13.75,4.84
			c-2.09,0.72-2.79,2.01-1.82,4.06C1437.17,1456.24,1439.16,1460.4,1441.17,1464.63z M1718.83,1439.21
			c-6.68,2.61-12.87,4.9-20.37,6.05c5.11,5.03,10.63,7.33,15.89,10.01c2.02,1.03,2.94-0.3,3.01-2.12
			C1717.53,1448.53,1717.78,1443.94,1718.83,1439.21z M1418.82,124.93c-2.92,4.7-5.04,8.03-7.06,11.42
			c-0.83,1.39-1.22,3.14-0.17,4.41c3.28,3.93,6.77,7.69,10.18,11.51c0.42-0.22,0.84-0.45,1.27-0.67
			C1421.1,143.35,1423.52,134.53,1418.82,124.93z M1743.02,1415.6c-2.75,3.45-4.84,6.04-6.89,8.65c-0.83,1.05-1.93,2.42-0.7,3.54
			c3.52,3.22,6.59,7.06,11.54,9.74C1748.52,1429.44,1746.7,1422.87,1743.02,1415.6z M1689.17,110.92c-1.24,3.65-2.17,6.35-3.07,9.05
			c-0.41,1.23-1.16,2.76,0.54,3.39c2.4,0.9,4.5,3.08,7.36,2.21c0.84-0.26,1.07-1.36,0.76-2.28
			C1693.45,119.37,1692.49,115.29,1689.17,110.92z M1634.8,138.75c8.7-8.48,9.51-8.68,1.19-13.96
			C1634.45,129.25,1634.67,133.67,1634.8,138.75z"/>
		<path class="st2" d="M1290.82,423.66c2.18,0.54,4.57-0.55,7.09-1.55c4.91-1.96,8.59-0.97,12.05,2.75
			c3.14,3.38,3.22,7.23,1.53,11.17c-2.31,5.38-5.85,9.37-12.14,10.18c-5.68,0.73-11.21,1.43-16.41,4.71
			c-4.74,2.99-9.84-0.65-10.88-6.88C1270.39,434.02,1279.66,421.64,1290.82,423.66z M1289.41,441.14c2.43-0.11,4.86-0.13,7.28-0.35
			c2.7-0.25,5.15-1.23,7.18-3.09c2.68-2.46,3.51-5.78,2.11-8.33c-1.35-2.45-5.16-4.28-8.08-2.76c-4.61,2.4-9.09,3.71-14.26,2.62
			c-0.94-0.2-2.04,0.72-2.69,1.7c-2.99,2.19-4.77,5.17-5.1,8.81c-0.38,4.12,2.82,6.58,6.77,5.34
			C1285.15,444.27,1287.27,442.67,1289.41,441.14z"/>
		<path class="st3" d="M1427.29,152.62c-2.37-4.8-1.87-9.71-0.55-14.65C1427.65,142.83,1427.85,147.71,1427.29,152.62z"/>
		<path class="st3" d="M1348.18,208.87c1.87,2.61,1.79,5.26,0.18,7.95C1347.62,214.19,1347.54,211.54,1348.18,208.87z"/>
		<path class="st3" d="M1407.18,110.95c-2.15,0.09-4.3,0.18-6.46,0.27C1402.81,109.38,1404.92,108.34,1407.18,110.95z"/>
		<path class="st3" d="M1348.36,194.17c1.5,1.81,1.48,3.58-0.18,5.28C1347.56,197.67,1347.61,195.91,1348.36,194.17z"/>
		<path class="st3" d="M1421.76,121.8c-1.87-0.06-3.75-0.12-5.62-0.19C1418.09,119.51,1419.96,119.6,1421.76,121.8z"/>
		<path class="st3" d="M1428.48,165.98c-1.48-1.17-1.79-2.45-0.39-3.91C1428.93,163.31,1428.95,164.62,1428.48,165.98z"/>
		<path class="st3" d="M1349.53,243.7c1.5,1.24,1.66,2.54,0.19,3.93C1348.99,246.35,1348.94,245.04,1349.53,243.7z"/>
		<path class="st3" d="M1409.94,130.24c-0.07,1.26-0.01,3.14-1.63,2.86c-2.04-0.35-1.3-2.28-0.98-3.71
			C1408.13,129.89,1408.81,130.76,1409.94,130.24z"/>
		<path class="st3" d="M1384.1,126.77c-0.02,1.12-0.53,2.02-1.48,2.53c-0.46,0.25-1.33,0.35-1.68,0.09
			c-0.73-0.56-0.69-1.38,0.05-2.06C1382.17,127.93,1383.1,127.17,1384.1,126.77z"/>
		<path class="st3" d="M1437.96,211.55c-1.22-0.7-1.65-1.52-0.42-2.61C1438.33,209.7,1438.51,210.57,1437.96,211.55z"/>
		<path class="st3" d="M1436.66,204.97c-1.25-0.73-1.9-1.56-0.45-2.74C1436.93,203.06,1437.09,203.97,1436.66,204.97z"/>
		<path class="st3" d="M1433.92,191.57c-1.19-0.72-1.87-1.52-0.5-2.71C1434.17,189.66,1434.32,190.57,1433.92,191.57z"/>
		<path class="st3" d="M1432.74,186.23c-1.27-0.71-1.97-1.53-0.51-2.75C1432.94,184.29,1433.13,185.21,1432.74,186.23z"/>
		<path class="st3" d="M1349.81,180.8c1.27,1.01,0.92,1.85-0.29,2.59C1348.97,182.45,1349.06,181.59,1349.81,180.8z"/>
		<path class="st3" d="M1431.28,179.52c-1.38-1-1.53-2.24-0.71-3.66C1431.45,176.95,1431.64,178.18,1431.28,179.52z"/>
		<path class="st3" d="M1408.05,121.7c-1.23-1.06-0.84-1.89,0.38-2.59C1409,120.08,1408.84,120.94,1408.05,121.7z"/>
		<path class="st3" d="M1425.96,131.3c-1.25-0.72-1.94-1.54-0.48-2.74C1426.24,129.37,1426.42,130.28,1425.96,131.3z"/>
		<path class="st3" d="M1435.33,198.28c-1.26-0.72-1.91-1.55-0.47-2.74C1435.58,196.36,1435.76,197.27,1435.33,198.28z"/>
		<path class="st3" d="M1413.69,124.3c0.16,1.57-0.4,2.64-2.04,2.97C1411.82,125.94,1412.36,124.85,1413.69,124.3z"/>
		<path class="st3" d="M1440.77,223.73c-1.19-0.69-2.01-1.46-0.62-2.72C1440.89,221.79,1441.05,222.71,1440.77,223.73z"/>
		<path class="st3" d="M1439.4,218.37c-1.48-1-1.6-2.25-0.71-3.7C1439.53,215.79,1439.77,217.02,1439.4,218.37z"/>
		<path class="st3" d="M1408.67,113.81c-1.25-0.56-1.61-1.58-1.48-2.85C1408.81,111.32,1409.18,112.34,1408.67,113.81z"/>
		<path class="st3" d="M1376.2,117.71c-0.42,1.12-1.3,1.51-2.42,1.48C1374.26,118.18,1374.95,117.5,1376.2,117.71z"/>
		<path class="st4" d="M1768.7,1407.44c0.48-1.11,1.41-1.49,2.54-1.53C1770.91,1407.28,1770.02,1407.71,1768.7,1407.44z"/>
		<path class="st3" d="M1378.9,117.78c-0.89-0.03-1.78-0.05-2.67-0.08C1377.15,116.64,1378.04,116.56,1378.9,117.78z"/>
		<path class="st3" d="M1398.99,112.39c-0.37,1.16-1.24,1.53-2.36,1.5C1397.19,113.04,1397.86,112.35,1398.99,112.39z"/>
		<path class="st4" d="M1772.54,1404.77c0.04-0.82,0.42-1.37,1.24-1.56C1773.9,1404.15,1773.46,1404.65,1772.54,1404.77z"/>
		<path class="st3" d="M1391.06,119.3c-0.08,0.73-0.48,1.14-1.21,1.22C1389.87,119.73,1390.28,119.33,1391.06,119.3z"/>
		<path class="st3" d="M1393.75,116.64c-0.09,0.72-0.5,1.13-1.23,1.2C1392.55,117.05,1392.96,116.65,1393.75,116.64z"/>
		<path class="st3" d="M1411.05,128.4c0.1,0.77-0.22,1.28-0.95,1.53C1409.96,129.14,1410.33,128.66,1411.05,128.4z"/>
		<path class="st3" d="M1392.4,117.96c-0.08,0.73-0.49,1.14-1.22,1.22C1391.21,118.39,1391.62,117.99,1392.4,117.96z"/>
		<path class="st3" d="M1395.11,115.39c-0.11,0.69-0.52,1.06-1.22,1.12C1393.95,115.76,1394.34,115.37,1395.11,115.39z"/>
		<path class="st3" d="M1396.45,114.03c-0.09,0.65-0.42,1.09-1.11,1.17C1395.38,114.49,1395.77,114.12,1396.45,114.03z"/>
		<path class="st3" d="M1370.82,123.04c0.04,0.77-0.32,1.26-1.07,1.46C1369.68,123.7,1370.06,123.23,1370.82,123.04z"/>
		<path class="st3" d="M1415.17,122.42c0.04,0.49-0.19,0.74-0.68,0.76c0,0,0.09-0.6,0.09-0.6L1415.17,122.42z"/>
		<path class="st4" d="M1737.94,1347.4c-0.77-0.04-1.2-0.45-1.29-1.22C1737.44,1346.21,1737.87,1346.61,1737.94,1347.4z"/>
		<path class="st4" d="M1739.28,1348.77c-0.78-0.06-1.19-0.5-1.24-1.27C1738.83,1347.56,1739.24,1347.98,1739.28,1348.77z"/>
		<path class="st4" d="M1751.45,1362.02c-0.78-0.06-1.18-0.46-1.11-1.27C1751.14,1360.79,1751.5,1361.23,1751.45,1362.02z"/>
		<path class="st3" d="M1388.4,122.04c-0.08,0.72-0.52,1.07-1.21,1.16C1387.28,122.49,1387.67,122.08,1388.4,122.04z"/>
		<path class="st3" d="M1371.98,121.34c0.07,0.89-0.35,1.44-1.18,1.73C1370.79,122.22,1371.21,121.66,1371.98,121.34z"/>
		<path class="st3" d="M1400.46,111.37c-0.2,0.74-0.68,1.08-1.45,1C1399.2,111.62,1399.66,111.26,1400.46,111.37z"/>
		<path class="st3" d="M1389.73,120.65c-0.07,0.72-0.46,1.12-1.17,1.22C1388.56,121.09,1388.96,120.69,1389.73,120.65z"/>
		<path class="st5" d="M1575.04,1482.72c-14.2-10.75-25.62-24.11-35.92-38.48c-14.94-20.85-24.62-43.87-28.1-69.36
			c-1.27-9.31-1.13-18.7-1.14-28.07c-0.01-4.91,0.08-9.82-0.67-14.7c-0.34-2.23-0.84-4.41-2.12-6.29c-2.5-3.67-6.54-4.02-9.65-0.85
			c-1.75,1.78-2.92,3.93-3.6,6.34c-3.03-0.4-3.5,1.86-4.36,3.97c-3.35,8.23-6.5,16.57-10.3,24.59
			c-10.68,22.53-21.92,44.74-37.89,64.2c-3.92,4.77-7.61,10.02-6.14,16.94c-2.69,0.64-5.36,0.48-8-0.25
			c-0.57-0.64-1.28-0.8-2.09-0.61c-21.09-6.41-36.54-19.02-44.12-40.22c-2.61-7.3-0.87-13.77,3.14-20.31
			c14.69-23.98,29.28-48.02,40.92-73.7c12.03-26.53,17.39-54.33,15.74-83.36c-2.73-48.18-3.17-96.35-0.56-144.55
			c0.33-6.01,0.43-12.06,0.2-18.07c-1.11-29.9,0.19-59.8-0.23-89.7c-0.06-4.38,0.02-4.44,4.53-4.09c3.34,0.26,6.65,0.79,9.99,1.04
			c5.12,0.38,6.55-0.78,6.54-5.89c-0.05-18.78,1.62-37.46,3.23-56.14c1.06-12.24,2.97-24.37,4.72-36.52
			c1.45-10.07-0.96-13.3-11.11-15c-3.08-0.52-6.2-0.84-9.27-1.39c-5.05-0.91-5.06-0.95-5.34-6.51c-0.67-13.16-0.65-26.34-0.13-39.5
			c0.46-11.62-0.24-23.21-0.35-34.81c-0.43-47.76-0.17-95.54-1.28-143.28c-1.16-50.04,1.55-99.98,2.08-149.97
			c0.01-0.88,0.26-1.75,0.4-2.63c4.59-0.5,9.13,0.11,13.75-1.9c8.06-3.5,12-10.41,16.15-17.21c4.72-7.73,4.51-10.13-0.02-17.15
			c4.8-11.52,6.94-23.45,5.65-35.94c-1.23-11.97-6.85-21.03-17.5-26.82c-5.88-3.19-11.92-6.08-17.26-10.2
			c-6.13-4.73-6.37-8.79-0.7-14.26c4.02-3.87,8.17-7.61,12.05-11.61c4.17-4.3,7.79-9.32,5.3-15.53c-2.38-5.93-8.37-6.88-14.04-7.36
			c-9.94-0.84-9.96-0.76-9.73-10.52c0.05-2.23,0.29-4.45,0.32-6.68c0.09-5.73,1.98-9.87,6.43-14.35
			c13.27-13.36,16.33-30.38,12.52-48.35c-1.06-5-0.42-8.47,2.34-12.26c13.77-18.98,30.8-34.62,49.59-48.45
			c7.37-5.43,15.04-10.39,23.33-14.37c3.65-1.75,6.86-1.81,10.79-0.29c26.64,10.28,49.38,26.59,70.7,45.14
			c2.34,2.04,4.48,4.35,6.47,6.74c2.78,3.32,3.19,7.01,1.91,11.27c-5.24,17.4-1.43,32.82,11.83,45.18
			c4.66,4.35,6.74,8.83,7.13,14.92c0.73,11.36,1.31,22.72,1.37,34.1c0.01,1.49,0.26,3.05-0.96,4.82c-2.88-1.84-3.87-4.92-5.46-7.39
			c-3.87-6.01-9.15-7.76-16.06-6.96c-12.95,1.49-20.72,9.27-24.14,21.73c-2.87,10.44-0.87,20.32,4.55,29.58
			c-1.06,0.51-1.7,1.38-1.74,2.53c-0.08,2.18-1.51,2.92-3.3,3.35c-1.97,0.24-4.02,0.22-5.9,0.77c-12.28,3.62-16.51,13.36-10.6,24.58
			c1.35,2.57,1.53,5.04,0.88,7.69c-0.75,3.01-1.73,5.97-2.41,8.99c-1.93,8.7-0.68,16.75,5.2,23.76c-0.18,1.09-0.12,2.3-0.58,3.25
			c-1.42,2.89-0.02,4.81,2.17,6.21c6.57,4.22,19.3,5.6,26.79-1.42c5.44-5.11,8.19-11.5,10.35-18.33c0.35-1.11-0.11-2.79,1.99-2.73
			c1.5,1.99,0.72,4.28,0.81,6.4c0.39,9.52-0.28,19.03,1.19,28.59c1.6,10.42,4.2,20.38,8.93,29.77c1.62,3.22,3.46,6.3,7.58,6.78
			c0.22,2.88,0.52,5.76,0.66,8.64c2.49,52.38,4.66,104.77,4.55,157.22c0,1.79-0.04,3.57,0.07,5.35c0.15,2.52-0.91,3.67-3.46,3.72
			c-6.03,0.11-12.05,0.29-18.07,0.51c-2.24,0.08-3.76-1.02-5.16-2.59c-2.23-2.49-4.39-5.08-6.87-7.32
			c-7.35-6.64-16.7-7.93-24.05-3.53c-7.15,4.28-10.67,13.59-8.66,22.89c1.16,5.4,3.57,10.12,7.83,13.69
			c6.2,5.2,13.18,6.56,20.56,2.97c4.38-2.13,8.95-4.14,12.46-7.72c2.17-2.21,4.81-3.23,7.83-3.19c4.91,0.07,9.82,0.33,14.72,0.37
			c2.69,0.02,3.38,1.46,3.42,3.81c0.06,4.02,0.17,8.04,0.45,12.04c0.2,2.86-0.82,3.94-3.77,3.98c-6.47,0.1-12.93,0.57-19.4,0.82
			c-2.27,0.09-4.53,0.08-5.89,2.34c-2.24,3.72-0.2,7.83,4.15,8.27c1.32,0.13,2.68,0,4.01-0.02c5.13-0.07,10.27-0.18,15.4-0.19
			c5.6,0,5.65,0.04,5.68,5.36c0.08,16.74,0.29,33.47,0.12,50.21c-0.13,12.95,1.28,25.82,1.32,38.78c0.09,29.9,0.28,59.8,0.04,89.7
			c-0.11,13.15-0.11,26.34,1.09,39.47c2.26,24.76,0.62,49.51-0.24,74.25c-1.48,42.89-0.24,85.67,4.12,128.36
			c1.02,10.01,1.17,20.05,1.23,30.09c0.14,23.31,3.53,46.26,7.56,69.11c6.08,34.42,21.28,64.57,43.81,91.2
			c10.08,11.92,20.2,23.82,28.97,36.8c9.95,14.73,8.51,29.78,0.63,44.3c-9.92,18.28-25.56,26.42-50.23,24.45
			c-7.36-0.59-14.37-3.11-21.15-6.11c-1.84-0.81-3.97-1.49-4.65-3.56c-1.59-4.84-4.94-8.32-8.31-11.93
			c-2.3-2.47-3.26-5.49-2.21-9.23c1.26-4.48,1.99-9.14,1.9-13.88c-0.26-13.86-9.93-23.52-23.8-23.65c-1.56-0.01-3.12,0.19-4.68,0.15
			c-6.26-0.18-8.81-3.13-8.01-9.45c0.55-4.42,1.31-8.82,1.96-13.23c0.83-5.65-0.19-11.07-1.73-16.5
			c-4.57-16.08-26.05-22.36-38.33-13.77c-10.16,7.11-17.69,15.65-18.14,28.78c-0.03,0.87-0.34,1.74-0.53,2.61
			c-3.49,0.96-3.23,3.77-3.22,6.47c0.05,9.1,0.83,18.19,1.05,27.25c0.32,13.57,1.52,27.04,3.24,40.4
			c2.26,17.58,6.33,34.87,12.37,51.61C1573.77,1475.3,1574.65,1478.94,1575.04,1482.72z"/>
		<path class="st6" d="M1333.26,440.31c2.41-5.6,6.08-10.33,10.15-14.78c8.77-9.57,18.34-18.22,29.15-25.45
			c4.65-3.11,8.98-6.62,13.08-10.4c13.21-12.18,20.81-27.08,21.27-45.27c0.19-7.56,1.78-14.61,7.04-20.37
			c5.61-6.15,12.58-7.34,19.82-3.2c3.62,2.06,7.41,3,11.5,2.96c4.66-0.04,9.16,0.42,10.99,5.6c1.07,3.02-2.92,8.23-8.19,10.24
			c-4.06,1.56-7.57,3.61-10.61,6.69c-8.58,8.69-9.21,15.78,2.5,24.88c4.01,3.12,8.84,5.18,13.15,7.95
			c5.07,3.26,9.92,6.82,13.17,12.12c3.97,6.48,5.77,13.46,5.21,21.05c-1.3,17.56-7.26,32.52-23.23,41.97
			c-5.9,3.49-12.11,5.84-19.05,4.97c-12.37-1.55-19.88,4.92-24.83,15.15c-3.29,6.81-5.85,13.97-8.78,20.95
			c-0.42,1.01-1.09,1.91-1.64,2.86c-7.74,3.04-15.53,5.75-23.9,2.48c-2.69-1.05-5.24-2.47-7.94-3.49
			c-9.41-3.54-16.08-9.89-20.61-18.85C1335.42,466.38,1333.96,453.44,1333.26,440.31z"/>
		<path class="st7" d="M1659.99,269.85c6.3-14.73,3.47-28.81-3.25-42.5c-2.78-5.66-7.5-9.57-13.54-11.17
			c-6.23-1.65-8.57-5.6-9.05-11.58c-1.35-16.94-2.21-33.93,1.93-50.55c5.96-23.94,32.64-34.24,53.66-21.34
			c9.42,5.79,15.34,14.07,18.79,24.34c3.98,11.87,6.5,24.09,8.91,36.35c4.81,24.51,5.44,49.13,2.07,73.87
			c-0.3,2.2-0.89,4.36-1.41,6.53c-1.18,4.89-3.23,8.42-8.45,10.92c-12.83,6.15-15.98,15.03-11.63,28.77
			c1.07,3.4,2.45,6.71,3.39,10.14c0.99,3.64,2.07,7.36,0.23,11.1c-3.41-0.47-2.95-3.62-3.65-5.7c-2.85-8.4-8.32-14.02-16.65-16.97
			c-3.14-1.11-6.19-2.47-9.33-3.59c-4.46-1.59-7.18-4.18-6.41-9.4c0.22-1.46-0.46-3.04-0.62-4.58
			C1664.07,286.12,1662.55,277.88,1659.99,269.85z"/>
		<path class="st6" d="M1669.11,493.1c-10.41-3.18-16.81-10.68-20.7-20.3c-4.55-11.24-6.82-23.02-6.74-35.23
			c0.07-10.69,0.39-21.38-1.29-32.02c-2.15-13.67-7.58-25.5-18.16-34.78c-5.02-4.41-9.85-9.06-14.5-13.86
			c-8.89-9.19-8.32-25.63,0.99-34.45c5.96-5.64,14.41-5.63,20.46,0c2.64,2.46,4.67,5.36,6.31,8.57c0.91,1.78,1.78,3.6,2.9,5.25
			c4.26,6.27,9.04,7.14,15.4,2.93c2.44-1.61,4.45-3.66,6.3-5.93c3.86-4.76,8.86-6.92,14.83-5.01c5.98,1.92,8.65,6.8,9.35,12.7
			c0.5,4.2,0.06,8.43-0.39,12.66c-1.27,12.01-1.84,24.02,1.87,35.78c2.87,9.08,7.42,17.15,14.54,23.63
			c5.28,4.81,11.42,6.69,18.51,5.48c5.93-1.01,11.86-2.03,17.92-1.78c0.42,4.13-1.34,7.78-2.41,11.62
			c-5.91,21.21-17.36,38.67-35.26,51.58c-5.53,3.98-11.16,8.42-18.04,9.64C1676.83,490.31,1673.01,491.72,1669.11,493.1z"/>
		<path class="st8" d="M1386.76,350.93c-3.13-3.88-4.35-8.73-6.62-13.04c-1.1-2.08-0.15-3.12,1.38-4.41
			c8.64-7.32,9.93-16.9,8.08-27.35c-0.49-2.78-2.18-4.81-4.36-6.51c-5.12-4.03-10.49-7.74-16.97-9c-4.22-0.82-5.75-3.2-6.57-7.09
			c-2.6-12.24-4.3-24.61-5.17-37.06c-1.27-18.02-2.24-36.11-0.36-54.11c1.62-15.56,4.59-30.92,14.95-43.59
			c2.11-2.58,4.22-5.2,7.26-6.81c10.09-5.36,20.14-3.37,27.67,5.3c5.36,6.18,9.01,13.28,11.45,20.98
			c4.43,14.01,9.39,27.89,11.7,42.48c0.59,3.74,1.1,7.5,1.39,11.27c0.39,4.99-0.72,9.44-3.48,13.91
			c-7.1,11.48-8.67,24.15-6.32,37.36c0.31,1.75,0.61,3.5,0.91,5.25c-3.66,0.65-3.37,4.08-3.66,6.32c-0.69,5.41-3.43,9.34-6.92,13.24
			c-8.17,9.12-14.85,19.25-18.77,30.94c-1.83,5.45-2.95,11.09-2.69,16.93C1389.75,348.14,1389.99,350.58,1386.76,350.93z"/>
		<path class="st6" d="M1570.9,1370.12c-1.88-8.56-1.96-17.24-1.65-25.93c0.33-9.29,4.14-16.94,12.12-21.86
			c10.27-6.34,18.41-4.46,23.82,7.21c3.39,7.32,3.97,15.11,2.29,22.89c-2.96,13.71,1.24,20.07,15.39,22.23
			c4.18,0.64,8.22,1.78,11.99,3.91c4.73,2.67,7.26,6.53,7.13,11.92c-0.13,5.12-0.32,10.25-0.89,15.33
			c-0.66,5.77-0.98,11.54-0.94,17.33c0.07,11.31,6.07,18.7,15.75,23.57c1.57,0.79,3.34,1.23,5.04,1.75
			c10.84,3.33,16.08,10.09,16.53,21.43c0.08,2,0.08,4.01,0.05,6.01c-0.13,6.88,1.5,13.22,5.61,18.83
			c-6.47,0.19-12.79-0.27-19.13-2.04c-16.6-4.62-31.52-11.86-42.65-25.51c-12.23-15-23.93-30.38-31.17-48.54
			c-5.57-14-12.28-27.63-14.51-42.8C1575.3,1373.29,1574.2,1370.61,1570.9,1370.12z"/>
		<path class="st9" d="M1570.9,1370.12c3.3,0.49,4.4,3.17,4.78,5.74c2.23,15.17,8.94,28.8,14.51,42.8
			c7.23,18.16,18.94,33.54,31.17,48.54c11.13,13.65,26.05,20.89,42.65,25.51c6.33,1.76,12.66,2.22,19.13,2.04
			c5.45,5.71,11.79,10.13,19,13.35c3.54,1.58,6.35,4.16,8.62,7.25c3.84,5.23,2.85,9.26-3.18,11.57c-4.14,1.59-8.52,2.63-12.86,3.62
			c-2.91,0.67-5.52,1.67-7.69,3.75c-2.12,2.04-4.86,3.13-7.35,4.6c-7.69,4.52-14.5,3.85-20.77-5.28
			c-6.06-8.82-13.25-16.1-21.43-22.72c-12.72-10.29-21.43-23.94-29.81-37.59c-12.89-20.99-23.12-43.27-28.83-67.39
			c-2.57-10.83-6.43-21.36-7.79-32.48C1570.9,1372.35,1570.94,1371.23,1570.9,1370.12z"/>
		<path class="st10" d="M1325.34,386.43c-0.23,0.39-0.57,0.62-1.01,0.69c-0.8,0.08-1.36,0.49-1.67,1.23c0,0,0.01-0.01,0.01-0.01
			c-10.81,1.32-17.53-4.1-22.09-13.24c-0.97-1.94-1.49-4.2-3.43-5.56c1.82-5.6,5.22-10.34,8.5-15.08
			c7.44-10.74,13.33-22.15,16.35-34.92c0.47-1.98,1.29-3.82,2.64-5.35c10.16-11.52,22.84-17.73,38.3-17.05
			c7.14,0.31,12.87,3.98,15.64,10.84c4,9.88-1.65,20.15-12.36,22.51c-3.89,0.86-7.97,1.22-11.96,1.22
			c-11.95-0.01-20.21,9.65-19.31,21.63c0.25,3.33,0.73,6.65,1.01,9.98c0.77,9.16-2.58,16.54-9.71,22.27
			C1325.85,385.74,1325.54,386.03,1325.34,386.43z"/>
		<path class="st11" d="M1435.15,1441c-1.47-6.91,2.22-12.17,6.14-16.94c15.97-19.46,27.21-41.67,37.89-64.2
			c3.8-8.02,6.95-16.36,10.3-24.59c0.86-2.1,1.33-4.36,4.36-3.97c2.24,3.94,3,8.2,3.33,12.71c0.95,13.13,3.76,26.01,5.71,39.01
			c2.09,13.95,2.12,13.94-7.61,24.16c-4.16,4.37-8.59,8.49-13.55,11.9c-11.6,7.97-23.88,14.76-36.87,20.22
			C1441.77,1440.6,1438.64,1441.92,1435.15,1441z"/>
		<path class="st9" d="M1669.11,493.1c3.9-1.38,7.72-2.8,11.9-3.54c6.88-1.22,12.51-5.65,18.04-9.64
			c17.91-12.9,29.36-30.37,35.26-51.58c1.07-3.83,2.83-7.49,2.41-11.62c4.16-0.77,8.23-1.35,12.56-0.65
			c16.74,2.69,25.31,20.38,16.76,35.03c-3.66,6.27-8.82,11.15-14.61,15.42c-5.01,3.71-9.82,7.73-15.05,11.1
			c-17.14,11.06-35.58,18.32-56.38,18.02C1676.2,495.6,1672.45,495.19,1669.11,493.1z"/>
		<path class="st12" d="M1575.04,1482.72c-0.38-3.78-1.27-7.41-2.56-11c-6.05-16.74-10.12-34.03-12.37-51.61
			c-1.72-13.37-2.92-26.84-3.24-40.4c-0.22-9.05-1-18.15-1.05-27.25c-0.02-2.7-0.27-5.52,3.22-6.47c0.82,18.31,4.15,36.22,8.74,53.9
			c10.38,39.9,28.21,75.81,57.18,105.68c0.29,0.3,0.42,0.76,0.62,1.15c-0.23,0.21-0.47,0.43-0.69,0.66
			c-0.87-0.11-1.79-0.05-2.59-0.35c-14.01-5.24-27.66-11.26-40.48-19.02C1579.37,1486.52,1576.73,1485.2,1575.04,1482.72z"/>
		<path class="st9" d="M1333.26,440.31c0.7,13.14,2.16,26.07,8.23,38.09c4.53,8.96,11.2,15.31,20.61,18.85
			c2.7,1.02,5.25,2.44,7.94,3.49c8.37,3.27,16.16,0.56,23.9-2.48c-3.48,10.29-9.33,19.18-16.64,27.04
			c-4.14,4.45-9.42,7.39-15.66,8.24c-4.6,0.62-8.41-0.53-10.9-4.66c-2.07-3.42-3.94-6.97-6.02-10.38
			c-4.96-8.18-9.91-16.36-15.01-24.45c-6.93-10.98-9.17-22.47-4.66-34.99C1327.36,452.6,1328.61,445.72,1333.26,440.31z"/>
		<path class="st13" d="M1641.82,491.6c-4.12-0.48-5.96-3.57-7.58-6.78c-4.73-9.39-7.33-19.35-8.93-29.77
			c-1.47-9.56-0.8-19.06-1.19-28.59c-0.09-2.13,0.7-4.41-0.81-6.4c-2.1-0.06-1.64,1.62-1.99,2.73c-2.16,6.83-4.91,13.22-10.35,18.33
			c-7.48,7.03-20.21,5.64-26.79,1.42c-2.19-1.4-3.59-3.32-2.17-6.21c0.47-0.95,0.4-2.16,0.58-3.25c2.57,1.27,4.99,2.85,8.03,2.88
			c9.23,0.1,21.72-9.18,24.37-17.99c1.5-4.98,0.84-9.66-3.31-12.63c-5.81-4.17-5.69-9.27-4.41-15.32
			c2.35-11.18-1.62-18.49-11.84-22.75c1.8-0.43,3.23-1.18,3.3-3.35c0.04-1.15,0.68-2.01,1.74-2.53c4.35,3.81,8.55,7.82,13.09,11.4
			c12.04,9.5,17.43,22.42,18.89,37.11c1.13,11.31,1.49,22.71,1.99,34.07c0.32,7.13,0.39,14.26,1.51,21.35
			c0.77,4.9,1.91,9.65,4.26,14.01C1642.33,483.28,1642.86,487.31,1641.82,491.6z"/>
		<path class="st10" d="M1705.06,349.32c0.92-2.74,1.64-5.57,2.79-8.21c2.99-6.89,3.13-13.83,0.82-20.88
			c-1.39-4.23-2.96-8.41-4.2-12.69c-2.17-7.43,2.33-13.91,10.05-14.63c1.99-0.19,4.02-0.19,6.02-0.11c9.64,0.4,15.08,6,15.2,15.76
			c0.07,5.84-1.72,11.44-2.49,17.17c-0.56,4.19-2.08,8.21-2.04,12.51c0.05,6.22,2.4,9.43,8.39,11.25c3.69,1.12,7.46,1.29,11.26,0.75
			c2.43-0.34,4.84-0.84,7.31-0.52c-0.18,0.64-0.15,1.52-0.57,1.88c-4.78,4.09-9.72,7.73-16.57,7.33c-4.22-0.25-8.48,0.1-12.7-0.08
			c-7.66-0.32-15.04-1.51-20.44-7.87C1707.22,350.2,1706.02,349.87,1705.06,349.32z"/>
		<path class="st14" d="M1438.9,912.05c0.37-16.93,1.22-31.85,2.49-46.75c0.28-3.26,1.19-4.47,4.73-4.63
			c13.89-0.63,13.76-0.79,12.81,13.04c-1.75,25.61-5.18,51.04-7.66,76.57c-0.49,5.08-0.67,5.14-5.78,4.23
			c-6.12-1.09-6.1-1.09-6.43-7.63C1438.45,934.61,1438.56,922.34,1438.9,912.05z"/>
		<path class="st15" d="M1659.99,269.85c2.56,8.03,4.08,16.27,4.98,24.64c0.16,1.54,0.84,3.12,0.62,4.58
			c-0.77,5.22,1.94,7.81,6.41,9.4c3.14,1.12,6.19,2.47,9.33,3.59c8.33,2.96,13.81,8.57,16.65,16.97c0.7,2.07,0.24,5.23,3.65,5.7
			c-4.05,8.87-4.73,18.66-7.45,28.03c-2.3-2.72-1.68-5.8-1.67-8.66c0.01-7.59-0.16-15.09-2.87-22.36
			c-4.03-10.81-13.22-15.25-23.98-11.33c-3.97,1.45-7.61,3.53-11.78,6.65c-0.98-5.07-1.43-9.32-1.46-13.65
			c-0.07-10.24-0.13-20.49-1.18-30.68c-0.36-3.47,0.29-5.93,3.41-7.88C1656.68,273.56,1658.23,271.53,1659.99,269.85z"/>
		<path class="st16" d="M1705.06,349.32c0.95,0.55,2.15,0.88,2.82,1.67c5.4,6.36,12.77,7.54,20.44,7.87
			c4.23,0.18,8.48-0.17,12.7,0.08c6.85,0.41,11.79-3.24,16.57-7.33c0.42-0.36,0.39-1.24,0.57-1.88c5.05-1.33,10.12-1.59,15.21-0.26
			c6.43,1.69,8.83,5.54,7.22,12c-0.53,2.13-1.46,4.24-2.57,6.14c-3.81,6.49-7.79,7.64-14.53,4.37c-1.8-0.88-3.51-1.95-5.3-2.86
			c-6.57-3.33-13.42-4.57-20.74-2.94c-4.78,1.06-9.64,1.79-14.46,2.7c-2.88,0.54-5.75,0.68-8.62-0.07
			C1704.54,366.23,1701.07,358.95,1705.06,349.32z"/>
		<path class="st15" d="M1386.76,350.93c3.23-0.35,2.99-2.79,2.89-4.99c-0.27-5.84,0.86-11.48,2.69-16.93
			c3.93-11.69,10.6-21.83,18.77-30.94c3.49-3.9,6.23-7.83,6.92-13.24c0.29-2.24-0.01-5.67,3.66-6.32c2.13,3.62,3.41,7.77,6.76,10.63
			c0.91,0.78,1.06,1.9,0.96,3.06c-0.43,5.11-0.89,10.21-1.24,15.32c-0.15,2.16-1.03,2.93-3.3,3.14
			c-15.06,1.36-21.38,6.98-24.42,21.71c-1.08,5.23-1.63,10.57-2.58,15.83c-0.71,3.93-1.83,7.75-3.74,11.81
			C1390.35,357.82,1388.09,354.77,1386.76,350.93z"/>
		<path class="st13" d="M1612.56,674.32c-0.15,8.21-3.32,13.06-9.32,14.21c-5.87,1.12-12.32-2.83-15.18-9.47
			c-2.01-4.66-2.37-9.45-0.28-14.2c3.04-6.9,10.11-9.32,16.55-5.46C1609.89,662.71,1612.69,667.77,1612.56,674.32z"/>
		<path class="st17" d="M1474.06,439.27c4.52,7.02,4.73,9.42,0.02,17.15c-4.15,6.79-8.1,13.71-16.15,17.21
			c-4.62,2.01-9.16,1.39-13.75,1.9c-0.17-0.64-0.43-1.26-0.49-1.91c-0.79-7.67-0.78-7.68,6.72-10.48
			c7.98-2.98,14.05-8.26,18.56-15.39C1470.72,444.96,1472.36,442.1,1474.06,439.27z"/>
		<path class="st18" d="M1374.16,1401.92c5.16,9.62,9.76,18.39,15.24,26.46c-2.22,2.46-4.6,1.79-6.72,1.85
			c-5.33,0.16-10.66,0.16-15.99,0.12c-2.32-0.02-3.36-1.39-2.37-3.51C1367.95,1419.05,1370.87,1410.97,1374.16,1401.92z"/>
		<path class="st19" d="M1297.15,369.54c1.93,1.36,2.46,3.62,3.43,5.56c4.56,9.14,11.28,14.57,22.09,13.24
			c-4.74,4.32-10.4,6.84-16.64,7.87c-9.02,1.49-14.81-3.93-13.85-13.11C1292.68,378.26,1293.75,373.42,1297.15,369.54z"/>
		<path class="st18" d="M1400.93,1452.23c0.28-3.55,0.39-7.13,0.88-10.65c0.34-2.47,1.83-3.45,4.31-2.07
			c4.28,2.38,8.6,4.7,12.89,7.07c1.72,0.96,2.06,2.54,0.83,3.9c-4.66,5.17-10.43,9.01-16.2,12.79c-1.5,0.98-2.54-0.21-2.77-1.71
			C1400.38,1458.46,1400.66,1455.34,1400.93,1452.23z"/>
		<path class="st20" d="M1751.25,1376.06c5.39,5.19,9.36,9.3,12.62,14.06c1.39,2.02,2.61,4.16,2.88,6.64
			c0.35,3.28-1.11,5.07-4.42,5.29c-3.37,0.22-6.58-0.8-9.78-1.67c-1.5-0.41-2.08-1.58-1.73-3.09
			C1752.32,1390.8,1751.56,1384.21,1751.25,1376.06z"/>
		<path class="st21" d="M1670.25,120.71c-7.25-0.45-12.84,0.89-18.83,2.05c0-5.82-0.21-11.32,0.08-16.8
			c0.17-3.14,2.06-3.87,4.46-1.77C1661.11,108.7,1665.26,114.1,1670.25,120.71z"/>
		<path class="st21" d="M1441.17,1464.63c-2.01-4.23-4-8.4-5.98-12.57c-0.97-2.05-0.27-3.33,1.82-4.06
			c4.57-1.58,9.13-3.21,13.75-4.84C1451.2,1449.58,1446.26,1460.7,1441.17,1464.63z"/>
		<path class="st22" d="M1718.83,1439.21c-1.04,4.73-1.3,9.32-1.48,13.94c-0.07,1.82-0.99,3.15-3.01,2.12
			c-5.26-2.67-10.78-4.98-15.89-10.01C1705.96,1444.1,1712.15,1441.82,1718.83,1439.21z"/>
		<path class="st21" d="M1418.82,124.93c4.7,9.6,2.28,18.43,4.22,26.67c-0.42,0.22-0.84,0.45-1.27,0.67
			c-3.41-3.82-6.9-7.58-10.18-11.51c-1.05-1.27-0.66-3.02,0.17-4.41C1413.77,132.96,1415.89,129.63,1418.82,124.93z"/>
		<path class="st20" d="M1743.02,1415.6c3.68,7.27,5.49,13.83,3.95,21.93c-4.95-2.68-8.02-6.52-11.54-9.74
			c-1.23-1.12-0.12-2.48,0.7-3.54C1738.18,1421.64,1740.27,1419.05,1743.02,1415.6z"/>
		<path class="st21" d="M1404.2,116.75c-1.36,5.67-1.85,11.41-0.92,17.8c-5.28-1.68-9.84-3.14-14.88-4.75
			c3.91-5.72,8.61-9.75,13.29-13.79C1402.53,116.26,1403.37,116.5,1404.2,116.75z"/>
		<path class="st22" d="M1689.17,110.92c3.32,4.38,4.28,8.46,5.59,12.37c0.31,0.92,0.09,2.02-0.76,2.28
			c-2.86,0.87-4.96-1.31-7.36-2.21c-1.7-0.64-0.95-2.17-0.54-3.39C1687.01,117.26,1687.93,114.57,1689.17,110.92z"/>
		<path class="st22" d="M1376.17,124.56c1.07,7.21-1.28,12.73-7.97,16.11c-0.41-0.19-0.83-0.28-1.28-0.28
			c2.35-5.5,4.55-11.07,8-16.02c0,0,0.61,0.18,0.61,0.18L1376.17,124.56z"/>
		<path class="st20" d="M1634.8,138.75c-0.12-5.08-0.35-9.49,1.19-13.96C1644.3,130.06,1643.5,130.27,1634.8,138.75z"/>
		<path class="st3" d="M1404.2,116.75c-0.83-0.24-1.67-0.49-2.5-0.74C1402.96,114.81,1403.92,114.63,1404.2,116.75z"/>
		<path class="st2" d="M1366.92,140.4c0.45,0,0.87,0.09,1.28,0.28C1367.55,141.64,1367.15,141.4,1366.92,140.4z"/>
		<path class="st2" d="M1376.17,124.56l-0.63,0c0,0-0.61-0.18-0.61-0.18C1375.48,123.46,1375.9,123.52,1376.17,124.56z"/>
		<path class="st11" d="M1425.07,1440.14c0.81-0.19,1.52-0.03,2.09,0.61C1426.33,1440.99,1425.61,1440.85,1425.07,1440.14z"/>
		<path class="st0" d="M1676.13,1448.03c0.38-0.29,0.77-0.57,1.15-0.86c0.12,0.31,0.24,0.62,0.35,0.93
			C1677.12,1448.54,1676.61,1448.54,1676.13,1448.03z"/>
		<path class="st19" d="M1325.34,386.43c0.2-0.4,0.52-0.69,0.93-0.86C1326.23,386.16,1325.95,386.47,1325.34,386.43z"/>
		<path class="st19" d="M1322.65,388.35c0.31-0.74,0.86-1.15,1.67-1.23C1323.99,387.84,1323.46,388.28,1322.65,388.35z"/>
		<path class="st12" d="M1625.58,1506.71c0.4,0.3,0.81,0.6,1.21,0.9c-0.75,0.78-1.33,0.36-1.9-0.25
			C1625.11,1507.14,1625.34,1506.93,1625.58,1506.71z"/>
		<path class="st23" d="M1280.95,430.93c0.65-0.98,1.75-1.9,2.69-1.7c5.17,1.09,9.65-0.23,14.26-2.62c2.92-1.52,6.73,0.31,8.08,2.76
			c1.4,2.54,0.58,5.87-2.11,8.33c-2.03,1.86-4.48,2.84-7.18,3.09c-2.42,0.23-4.85,0.24-7.28,0.35
			C1286.29,437.98,1282.39,435.47,1280.95,430.93z"/>
		<path class="st19" d="M1280.95,430.93c1.44,4.55,5.34,7.05,8.46,10.21c-2.14,1.53-4.26,3.14-6.79,3.94
			c-3.95,1.25-7.15-1.22-6.77-5.34C1276.18,436.1,1277.96,433.12,1280.95,430.93z"/>
		<path class="st24" d="M1595.43,367.28c10.22,4.26,14.19,11.57,11.84,22.75c-1.27,6.05-1.39,11.15,4.41,15.32
			c4.15,2.98,4.8,7.66,3.31,12.63c-2.65,8.8-15.14,18.08-24.37,17.99c-3.04-0.03-5.47-1.62-8.03-2.88
			c-5.88-7.01-7.13-15.06-5.2-23.76c0.67-3.03,1.66-5.98,2.41-8.99c0.66-2.65,0.48-5.12-0.88-7.69
			c-5.91-11.22-1.68-20.96,10.6-24.58C1591.41,367.5,1593.46,367.52,1595.43,367.28z M1585.43,415.08
			c-0.12,1.54-0.41,3.09-0.34,4.62c0.26,5.26,3.85,8.67,8.96,8.65c6.76-0.03,13.24-6.04,14.22-13.19c0.48-3.21-1.95-4.81-3.84-6.56
			c-4.49-4.16-6.08-9.09-4.68-15.04c0.4-1.72,0.49-3.52,0.93-5.23c0.58-2.29,0.05-4.43-0.66-6.53c-1.53-4.49-5.56-6.4-10.1-4.95
			c-4.18,1.34-5.83,4.88-3.7,9.57c2.45,5.4,2.24,10.66,1.03,16.23C1586.36,406.73,1584.81,410.77,1585.43,415.08z"/>
		<path class="st23" d="M1585.43,415.08c-0.62-4.32,0.93-8.35,1.82-12.43c1.21-5.57,1.42-10.83-1.03-16.23
			c-2.13-4.7-0.48-8.23,3.7-9.57c4.55-1.46,8.58,0.46,10.1,4.95c0.71,2.09,1.24,4.24,0.66,6.53c-0.44,1.71-0.52,3.51-0.93,5.23
			c-1.4,5.95,0.19,10.89,4.68,15.04c1.9,1.75,4.32,3.36,3.84,6.56c-4.25,0.84-8.04,3.4-12.72,2.75
			C1592,417.42,1588.89,415.7,1585.43,415.08z"/>
		<path class="st19" d="M1585.43,415.08c3.46,0.62,6.57,2.34,10.11,2.83c4.68,0.65,8.48-1.91,12.72-2.75
			c-0.98,7.15-7.46,13.17-14.22,13.19c-5.11,0.02-8.7-3.39-8.96-8.65C1585.02,418.18,1585.31,416.63,1585.43,415.08z"/>
	</g>
</g>
</svg>
