<?xml version="1.0" encoding="UTF-8"?>
<!DOCTYPE svg PUBLIC "-//W3C//DTD SVG 1.1//EN" "http://www.w3.org/Graphics/SVG/1.1/DTD/svg11.dtd">
<svg xmlns="http://www.w3.org/2000/svg" version="1.1" width="647px" height="653px" style="shape-rendering:geometricPrecision; text-rendering:geometricPrecision; image-rendering:optimizeQuality; fill-rule:evenodd; clip-rule:evenodd" xmlns:xlink="http://www.w3.org/1999/xlink">
<g><path style="opacity:0.983" fill="#d8344c" d="M 282.5,-0.5 C 286.167,-0.5 289.833,-0.5 293.5,-0.5C 303.877,1.27294 312.377,6.27294 319,14.5C 326.134,8.6854 334.301,5.1854 343.5,4C 364.486,4.52509 385.486,4.52509 406.5,4C 419.431,1.90804 432.431,1.24137 445.5,2C 456.209,4.55705 464.542,10.3904 470.5,19.5C 487.921,8.06948 506.921,1.40281 527.5,-0.5C 531.833,-0.5 536.167,-0.5 540.5,-0.5C 579.826,4.33294 600.326,26.6663 602,66.5C 637.129,89.2461 645.462,119.579 627,157.5C 618.167,171.321 606,181.155 590.5,187C 564.773,195.481 538.44,198.148 511.5,195C 494.187,193.64 477.52,189.806 461.5,183.5C 421.288,199.481 380.621,200.647 339.5,187C 337.336,186.086 335.336,184.919 333.5,183.5C 327.458,189.102 320.291,192.102 312,192.5C 271.832,187.676 231.999,189.676 192.5,198.5C 174.281,197.448 162.781,188.114 158,170.5C 158.331,153.664 159.165,136.83 160.5,120C 160.278,105.389 158.944,90.889 156.5,76.5C 146.506,76.9898 136.506,77.3231 126.5,77.5C 127.534,103.327 128.534,129.16 129.5,155C 129.999,178.828 118.332,191.328 94.5,192.5C 74.5226,191.788 62.3559,181.788 58,162.5C 56.8446,133.493 55.6779,104.493 54.5,75.5C 40.8535,76.1391 27.8535,73.6391 15.5,68C 7.66211,63.0098 2.32878,56.1765 -0.5,47.5C -0.5,41.8333 -0.5,36.1667 -0.5,30.5C 3.41405,17.4148 11.7474,8.24813 24.5,3C 51.8072,4.30708 79.1406,5.47375 106.5,6.5C 126.163,5.49272 145.83,4.99272 165.5,5C 171.475,6.40331 176.642,9.23665 181,13.5C 201.668,10.8362 215.001,19.5029 221,39.5C 228.599,65.6251 232.099,92.2918 231.5,119.5C 239.158,119.014 246.825,118.68 254.5,118.5C 246.953,84.5296 248.12,50.8629 258,17.5C 263.272,7.37374 271.438,1.37374 282.5,-0.5 Z M 432.5,72.5 C 434.167,72.5 435.833,72.5 437.5,72.5C 437.879,89.7517 444.545,103.918 457.5,115C 450.1,113.992 442.767,114.492 435.5,116.5C 435.167,116.333 434.833,116.167 434.5,116C 439.497,99.9898 436.164,85.9898 424.5,74C 427.365,73.8171 430.031,73.3171 432.5,72.5 Z"/></g>
<g><path style="opacity:1" fill="#f9deac" d="M 284.5,20.5 C 298.562,19.3969 305.062,25.7302 304,39.5C 294.835,79.5321 301.168,116.865 323,151.5C 324.592,159.733 321.758,165.899 314.5,170C 294.849,169.21 275.182,168.876 255.5,169C 234.158,169.537 213.158,172.371 192.5,177.5C 185.886,177.056 181.386,173.723 179,167.5C 178.343,157.423 179.01,147.423 181,137.5C 181.667,124.5 181.667,111.5 181,98.5C 179.014,81.1159 175.848,63.9493 171.5,47C 171.306,40.5168 174.306,36.1834 180.5,34C 189.867,31.6606 196.367,34.8273 200,43.5C 209.705,76.2169 212.872,109.55 209.5,143.5C 234.059,140.402 258.726,138.736 283.5,138.5C 269.5,103.329 267,67.3289 276,30.5C 277,28.5 278,26.5 279,24.5C 281.015,23.3034 282.849,21.9701 284.5,20.5 Z"/></g>
<g><path style="opacity:1" fill="#f9deac" d="M 521.5,20.5 C 537.788,18.123 552.788,21.2897 566.5,30C 576.501,39.3356 581.001,50.8356 580,64.5C 576.024,71.2361 570.191,73.7361 562.5,72C 559.241,70.7894 556.408,68.9561 554,66.5C 552.534,62.1189 550.701,57.9523 548.5,54C 531.038,46.6005 514.704,48.6005 499.5,60C 495.28,63.6047 493.113,68.1047 493,73.5C 493.5,74 494,74.5 494.5,75C 512.461,73.7269 530.461,73.3936 548.5,74C 567.77,74.8962 585.436,80.5629 601.5,91C 618.141,107.207 620.641,125.374 609,145.5C 601.532,155.294 592.032,162.46 580.5,167C 545.884,178.242 511.218,178.242 476.5,167C 468.878,163.167 466.045,157.001 468,148.5C 471.045,140.227 476.879,137.06 485.5,139C 514.522,148.944 543.522,148.944 572.5,139C 580.053,136.119 584.719,130.785 586.5,123C 584.015,114.564 578.349,109.564 569.5,108C 562.968,106.022 556.302,104.689 549.5,104C 528.808,103.626 508.141,103.959 487.5,105C 469.576,101.574 459.909,90.7409 458.5,72.5C 460.31,59.0504 466.643,48.2171 477.5,40C 490.885,30.4713 505.552,23.9713 521.5,20.5 Z"/></g>
<g><path style="opacity:1" fill="#f9deac" d="M 392.5,54.5 C 380.5,54.5 368.5,54.5 356.5,54.5C 356.5,56.1667 356.5,57.8333 356.5,59.5C 355.361,69.8339 355.361,80.1672 356.5,90.5C 374.46,85.4148 392.46,85.2481 410.5,90C 415.796,95.2466 416.962,101.413 414,108.5C 410.451,114.58 405.118,117.247 398,116.5C 385.238,114.537 372.738,115.537 360.5,119.5C 361.955,127.155 363.955,134.655 366.5,142C 392.616,149.523 417.95,147.523 442.5,136C 455.809,135.061 462.309,141.228 462,154.5C 461.117,157.102 459.617,159.269 457.5,161C 429.853,174.533 400.853,178.533 370.5,173C 363.436,171.587 356.436,169.921 349.5,168C 346.898,167.117 344.731,165.617 343,163.5C 326.383,121.376 322.383,78.0429 331,33.5C 333.405,28.1004 337.572,25.6004 343.5,26C 365.5,25.6667 387.5,25.3333 409.5,25C 420.106,23.1543 430.773,22.4876 441.5,23C 449.871,26.9087 453.037,33.4087 451,42.5C 450.654,44.8477 449.487,46.6811 447.5,48C 429.525,52.7983 411.192,54.965 392.5,54.5 Z"/></g>
<g><path style="opacity:1" fill="#f9deac" d="M 121.5,56.5 C 115.833,56.5 110.167,56.5 104.5,56.5C 104.185,60.3714 104.518,64.0381 105.5,67.5C 106.46,98.5091 107.294,129.509 108,160.5C 107.243,166.181 104.076,169.681 98.5,171C 88.879,173.108 82.379,169.608 79,160.5C 77.7988,125.499 76.6321,90.4987 75.5,55.5C 60.727,55.6578 46.0603,54.4911 31.5,52C 21.618,46.8364 18.7846,39.0031 23,28.5C 24.5429,26.6217 26.3762,25.1217 28.5,24C 52.4531,25.7009 76.4531,26.8676 100.5,27.5C 118.69,27.3791 136.856,26.7124 155,25.5C 166.312,26.8399 170.645,33.1732 168,44.5C 166.217,50.1572 162.384,53.6572 156.5,55C 144.853,55.999 133.186,56.499 121.5,56.5 Z"/></g>
<g><path style="opacity:1" fill="#efa88d" d="M 392.5,54.5 C 381.012,55.4949 369.345,55.8283 357.5,55.5C 357.768,57.099 357.434,58.4324 356.5,59.5C 356.5,57.8333 356.5,56.1667 356.5,54.5C 368.5,54.5 380.5,54.5 392.5,54.5 Z"/></g>
<g><path style="opacity:1" fill="#e3696a" d="M 121.5,56.5 C 116.36,57.4881 111.026,57.8214 105.5,57.5C 105.5,60.8333 105.5,64.1667 105.5,67.5C 104.518,64.0381 104.185,60.3714 104.5,56.5C 110.167,56.5 115.833,56.5 121.5,56.5 Z"/></g>
<g><path style="opacity:0.983" fill="#d8344c" d="M 90.5,198.5 C 96.678,198.107 102.678,198.94 108.5,201C 125.496,213.662 144.496,221.662 165.5,225C 175.338,225.465 185.171,225.298 195,224.5C 215.436,223.931 228.103,233.598 233,253.5C 258.514,236.042 286.348,231.209 316.5,239C 333.082,243.207 347.915,250.707 361,261.5C 386.19,234.994 416.356,226.827 451.5,237C 460.442,240.771 467.775,246.605 473.5,254.5C 475.396,255.466 477.396,255.799 479.5,255.5C 481.216,244.753 483.383,234.087 486,223.5C 490.776,207.764 501.443,199.43 518,198.5C 540.863,199.981 553.696,211.981 556.5,234.5C 555.324,242.202 553.99,249.869 552.5,257.5C 568.857,257.267 585.19,257.767 601.5,259C 618.959,264.559 627.959,276.559 628.5,295C 627.836,315.373 617.503,327.039 597.5,330C 611.864,339.239 617.697,352.406 615,369.5C 613.876,375.915 611.043,381.415 606.5,386C 593.011,398.08 577.677,407.08 560.5,413C 530.969,419.716 507.803,410.549 491,385.5C 474.826,399.34 455.993,406.507 434.5,407C 412.721,407.944 391.388,405.278 370.5,399C 365.334,396.92 360.667,394.087 356.5,390.5C 322.98,406.939 288.647,409.105 253.5,397C 236.695,389.865 223.195,378.698 213,363.5C 208.369,366.711 203.202,368.545 197.5,369C 185.146,368.99 172.812,369.157 160.5,369.5C 167.052,392.565 159.385,409.065 137.5,419C 122.496,424.292 109.996,420.792 100,408.5C 73.1418,355.401 58.9752,299.068 57.5,239.5C 56.3703,215.971 67.3703,202.305 90.5,198.5 Z M 135.5,292.5 C 157.752,296.552 180.085,297.385 202.5,295C 201.809,296.067 201.309,297.234 201,298.5C 179.242,297.399 157.409,296.732 135.5,296.5C 135.5,295.167 135.5,293.833 135.5,292.5 Z M 550.5,328.5 C 554.534,328.672 558.534,329.172 562.5,330C 558.722,332.112 555.222,334.612 552,337.5C 551.304,334.522 550.804,331.522 550.5,328.5 Z"/></g>
<g><path style="opacity:1" fill="#f9deac" d="M 90.5,219.5 C 93.941,219.301 97.2744,219.801 100.5,221C 130.762,242.649 164.428,250.982 201.5,246C 212.238,252.238 214.238,260.572 207.5,271C 204.637,272.399 201.637,273.399 198.5,274C 167.648,277.958 138.148,273.458 110,260.5C 111.107,279.745 113.94,298.745 118.5,317.5C 144.823,318.237 171.156,318.737 197.5,319C 206.847,323.535 209.681,330.702 206,340.5C 204.437,343.728 201.937,345.895 198.5,347C 175.167,347.333 151.833,347.667 128.5,348C 132.801,358.565 137.301,369.065 142,379.5C 143.618,388.764 140.118,395.264 131.5,399C 125.622,400.653 120.788,399.153 117,394.5C 90.9605,342.605 78.2938,287.605 79,229.5C 81.1938,224.171 85.0271,220.838 90.5,219.5 Z"/></g>
<g><path style="opacity:1" fill="#f9deac" d="M 515.5,219.5 C 528.41,218.918 534.91,224.918 535,237.5C 531.433,250.64 528.933,263.974 527.5,277.5C 550.512,278.015 573.512,278.848 596.5,280C 607.591,284.591 610.424,292.425 605,303.5C 603.363,305.81 601.196,307.31 598.5,308C 574.5,308.269 550.5,308.103 526.5,307.5C 527.067,319.515 527.901,331.515 529,343.5C 530.301,351.958 534.468,358.458 541.5,363C 547.776,364.338 553.443,363.004 558.5,359C 563.118,356.05 567.452,352.716 571.5,349C 587.048,344.904 594.548,350.737 594,366.5C 583.176,378.84 569.676,387.007 553.5,391C 526.258,396.435 509.425,385.602 503,358.5C 498.036,341.532 495.703,324.199 496,306.5C 489.581,305.687 483.081,305.187 476.5,305C 469.196,300.892 466.363,294.725 468,286.5C 469.068,281.765 471.901,278.598 476.5,277C 483.826,276.5 491.159,276.334 498.5,276.5C 499.581,259.095 502.748,242.095 508,225.5C 510.114,222.879 512.614,220.879 515.5,219.5 Z"/></g>
<g><path style="opacity:1" fill="#f9deac" d="M 415.5,253.5 C 431.775,251.234 445.608,255.901 457,267.5C 461.317,272.781 462.983,278.781 462,285.5C 457.971,293.591 451.471,296.424 442.5,294C 440.833,293 439.167,292 437.5,291C 435.732,288.116 433.732,285.449 431.5,283C 420.013,281.163 410.179,284.329 402,292.5C 401.75,296.944 403.916,299.778 408.5,301C 419.176,301.266 429.842,301.266 440.5,301C 456.139,303.397 468.972,310.563 479,322.5C 485.968,334.914 487.301,347.914 483,361.5C 477.554,371.266 469.387,377.766 458.5,381C 431.678,387.405 405.011,386.738 378.5,379C 367.918,373.553 365.751,365.719 372,355.5C 375.788,350.847 380.622,349.347 386.5,351C 402.7,356.907 419.367,358.907 436.5,357C 441.126,356.094 445.46,354.427 449.5,352C 456.563,344.553 455.563,338.22 446.5,333C 442.943,331.592 439.276,330.592 435.5,330C 425.833,329.667 416.167,329.333 406.5,329C 395.618,328.782 385.618,325.782 376.5,320C 368.325,311.813 365.491,301.979 368,290.5C 372.196,276.969 380.696,267.136 393.5,261C 400.578,257.364 407.911,254.864 415.5,253.5 Z"/></g>
<g><path style="opacity:1" fill="#f9deac" d="M 279.5,256.5 C 302.855,255.219 324.188,261.052 343.5,274C 356.598,284.025 362.098,297.191 360,313.5C 358.5,319 355,322.5 349.5,324C 319.503,327 289.503,330 259.5,333C 257.744,333.202 256.078,333.702 254.5,334.5C 258.818,342.983 265.485,348.816 274.5,352C 292.2,356.053 309.533,354.719 326.5,348C 334.071,345.215 341.405,341.881 348.5,338C 361.819,337.654 367.986,344.154 367,357.5C 365.833,359.333 364.667,361.167 363.5,363C 334.107,381.731 302.441,387.398 268.5,380C 234.634,367.091 218.801,342.591 221,306.5C 226.722,285.109 239.888,270.275 260.5,262C 266.835,259.711 273.169,257.877 279.5,256.5 Z"/></g>
<g><path style="opacity:1" fill="#d8374e" d="M 282.5,286.5 C 294.165,285.61 305.498,287.11 316.5,291C 320.016,292.256 323.016,294.256 325.5,297C 301.111,299.707 276.778,301.873 252.5,303.5C 260.211,293.648 270.211,287.982 282.5,286.5 Z"/></g>
<g><path style="opacity:0.983" fill="#d8344c" d="M 646.5,554.5 C 646.5,560.167 646.5,565.833 646.5,571.5C 639.319,591.634 624.986,600.3 603.5,597.5C 604.192,605.323 604.858,613.156 605.5,621C 605.057,637.927 596.724,648.427 580.5,652.5C 574.833,652.5 569.167,652.5 563.5,652.5C 547.591,649.091 537.757,639.425 534,623.5C 533.416,614.708 532.249,606.042 530.5,597.5C 523.334,599.374 516.334,601.707 509.5,604.5C 502.835,619.315 491.335,627.315 475,628.5C 464.949,626.389 455.116,623.556 445.5,620C 440.167,619.333 434.833,619.333 429.5,620C 404.469,625.273 379.303,629.773 354,633.5C 347.326,633.495 341.326,631.495 336,627.5C 317.202,641.924 296.702,644.758 274.5,636C 261.673,630.502 250.506,622.668 241,612.5C 232.86,625.149 221.36,629.983 206.5,627C 186.106,620.133 165.439,619.133 144.5,624C 132.42,626.687 120.42,629.687 108.5,633C 83.2463,633.919 69.2463,621.753 66.5,596.5C 66.671,587.817 69.5044,580.151 75,573.5C 89.3119,560.529 102.145,546.362 113.5,531C 85.4554,522.789 72.2887,503.956 74,474.5C 76.6573,459.842 84.1573,448.342 96.5,440C 126.064,421.849 157.397,417.849 190.5,428C 216.736,440.992 226.236,461.825 219,490.5C 239.802,447.863 273.302,433.029 319.5,446C 330.057,449.61 339.724,454.777 348.5,461.5C 371.13,433.503 399.797,424.67 434.5,435C 445.416,439.038 454.916,445.204 463,453.5C 469.615,441.351 479.949,435.351 494,435.5C 505.419,435.414 515.086,439.414 523,447.5C 526.105,435.176 533.939,427.676 546.5,425C 566.286,421.481 581.119,428.314 591,445.5C 592.616,449.347 593.616,453.347 594,457.5C 595.265,476.879 596.765,496.213 598.5,515.5C 609.628,517.264 619.961,521.097 629.5,527C 637.941,534.575 643.608,543.742 646.5,554.5 Z M 210.5,510.5 C 211.097,510.735 211.43,511.235 211.5,512C 208.303,525.816 207.803,539.649 210,553.5C 202.946,551.633 195.78,550.133 188.5,549C 197.248,537.007 204.581,524.174 210.5,510.5 Z M 288.5,513.5 C 296.65,512.257 302.483,515.257 306,522.5C 306.667,528.167 306.667,533.833 306,539.5C 302.527,547.779 298.527,555.779 294,563.5C 280.411,550.808 277.078,535.808 284,518.5C 285.059,516.341 286.559,514.674 288.5,513.5 Z"/></g>
<g><path style="opacity:1" fill="#f9deac" d="M 146.5,443.5 C 198.152,441.81 211.985,463.81 188,509.5C 175.441,531.459 161.274,552.292 145.5,572C 160.101,570.586 174.768,570.252 189.5,571C 198.645,572.362 207.645,574.362 216.5,577C 226.996,582.835 229.162,591.002 223,601.5C 220.208,604.6 216.708,606.267 212.5,606.5C 188.88,598.535 164.88,597.368 140.5,603C 127.727,605.86 115.06,609.027 102.5,612.5C 91.8881,610.62 87.0548,604.286 88,593.5C 88.6667,592.167 89.3333,590.833 90,589.5C 119.363,560.074 144.363,527.407 165,491.5C 167.062,486.669 167.729,481.669 167,476.5C 164.935,473.124 161.935,471.791 158,472.5C 149.57,473.643 141.404,475.809 133.5,479C 133.043,479.414 132.709,479.914 132.5,480.5C 140.683,489.674 140.35,498.508 131.5,507C 112.604,512.299 100.437,505.466 95,486.5C 94.1627,472.345 99.996,461.845 112.5,455C 123.309,449.231 134.643,445.397 146.5,443.5 Z"/></g>
<g><path style="opacity:1" fill="#f9deac" d="M 552.5,444.5 C 561.326,443.495 567.826,446.829 572,454.5C 574.536,482.153 576.703,509.82 578.5,537.5C 589.825,535.547 600.825,536.714 611.5,541C 619.336,545.494 624.002,552.161 625.5,561C 624.675,571.158 619.175,576.658 609,577.5C 606.456,577.616 604.289,576.783 602.5,575C 600.383,572.065 598.049,569.398 595.5,567C 590.566,565.84 585.566,565.34 580.5,565.5C 581.848,585.158 582.682,604.824 583,624.5C 581.321,628.77 578.155,631.27 573.5,632C 564.57,633.287 558.403,629.787 555,621.5C 553.28,604.869 552.113,588.202 551.5,571.5C 547.78,571.564 544.114,572.064 540.5,573C 525.924,576.638 511.424,580.471 497,584.5C 486.997,583.326 482.164,577.659 482.5,567.5C 483.109,553.843 483.443,540.177 483.5,526.5C 483.409,505.804 482.909,485.138 482,464.5C 487.854,454.845 495.687,453.012 505.5,459C 507.969,461.441 509.802,464.274 511,467.5C 512.35,494.814 512.85,522.147 512.5,549.5C 524.814,546.726 537.148,544.059 549.5,541.5C 547.38,514.513 545.38,487.513 543.5,460.5C 542.371,452.751 545.371,447.418 552.5,444.5 Z"/></g>
<g><path style="opacity:1" fill="#f9deac" d="M 397.5,452.5 C 429.48,449.228 450.98,462.561 462,492.5C 464.606,504.472 463.606,516.139 459,527.5C 450.437,544.397 438.603,558.564 423.5,570C 436.199,570.179 448.865,570.845 461.5,572C 469.877,574.014 477.877,577.014 485.5,581C 493.258,588.484 493.258,596.15 485.5,604C 482.576,605.881 479.409,607.048 476,607.5C 468.669,604.612 461.169,602.112 453.5,600C 440.506,598.057 427.506,598.057 414.5,600C 397.793,603.541 381.127,607.208 364.5,611C 349.279,614.113 342.779,607.947 345,592.5C 345.914,590.336 347.081,588.336 348.5,586.5C 376.774,569.407 402.607,549.074 426,525.5C 435.052,513.849 435.719,501.849 428,489.5C 419.195,482.951 409.362,480.785 398.5,483C 392.863,484.798 390.197,488.632 390.5,494.5C 395.676,510.998 389.676,518.831 372.5,518C 366.836,515.668 363.336,511.501 362,505.5C 358.222,487.835 363.389,473.335 377.5,462C 383.874,457.977 390.54,454.811 397.5,452.5 Z"/></g>
<g><path style="opacity:1" fill="#f9deac" d="M 286.5,460.5 C 324.863,462.685 348.03,482.685 356,520.5C 359.161,551.203 351.161,578.536 332,602.5C 311.291,623.568 289.124,625.068 265.5,607C 232.696,578.614 222.863,543.781 236,502.5C 245.556,479.419 262.39,465.419 286.5,460.5 Z M 288.5,513.5 C 286.559,514.674 285.059,516.341 284,518.5C 277.078,535.808 280.411,550.808 294,563.5C 298.527,555.779 302.527,547.779 306,539.5C 306.667,533.833 306.667,528.167 306,522.5C 302.483,515.257 296.65,512.257 288.5,513.5 Z"/></g>
<g><path style="opacity:0.984" fill="#d8344c" d="M 285.5,490.5 C 299.716,488.861 310.882,493.861 319,505.5C 327.521,518.393 329.854,532.393 326,547.5C 324.101,562.467 317.601,574.967 306.5,585C 299.138,589.598 291.804,589.598 284.5,585C 262.021,566.226 254.854,542.726 263,514.5C 267.658,503.68 275.158,495.68 285.5,490.5 Z M 288.5,513.5 C 286.559,514.674 285.059,516.341 284,518.5C 277.078,535.808 280.411,550.808 294,563.5C 298.527,555.779 302.527,547.779 306,539.5C 306.667,533.833 306.667,528.167 306,522.5C 302.483,515.257 296.65,512.257 288.5,513.5 Z"/></g>
</svg>
